<svg width="802" height="517" viewBox="0 0 802 517" fill="none" xmlns="http://www.w3.org/2000/svg">
<path d="M135.006 515.164C133.923 515.164 132.857 514.903 131.897 514.401C130.938 513.9 130.114 513.174 129.495 512.286C128.876 511.397 128.481 510.372 128.343 509.298C128.206 508.223 128.33 507.132 128.705 506.115L145.18 461.447H171.381L140.751 511.967C140.147 512.947 139.301 513.756 138.295 514.316C137.289 514.876 136.157 515.168 135.006 515.164V515.164Z" fill="white" stroke="black" stroke-width="3"/>
<path d="M368.238 515.164C369.32 515.164 370.386 514.903 371.346 514.401C372.305 513.9 373.13 513.174 373.748 512.286C374.367 511.397 374.762 510.372 374.9 509.298C375.038 508.223 374.914 507.132 374.539 506.115L358.064 461.447H331.862L362.492 511.967C363.096 512.947 363.942 513.756 364.948 514.316C365.954 514.876 367.086 515.168 368.238 515.164V515.164Z" fill="black" stroke="black" stroke-width="3"/>
<path d="M394.132 328.719H109.111V477.722H394.132V328.719Z" fill="white" stroke="black" stroke-width="3"/>
<path d="M374.961 347.904H128.283V458.537H374.961V347.904Z" fill="white" stroke="black" stroke-width="3"/>
<path d="M375.28 403.393H128.283" stroke="black" stroke-width="3" stroke-miterlimit="10"/>
<path d="M251.622 383.888C255.504 383.888 258.651 380.739 258.651 376.854C258.651 372.969 255.504 369.82 251.622 369.82C247.739 369.82 244.592 372.969 244.592 376.854C244.592 380.739 247.739 383.888 251.622 383.888Z" fill="black" stroke="black" stroke-width="3"/>
<path d="M251.622 437.606C255.504 437.606 258.651 434.457 258.651 430.572C258.651 426.687 255.504 423.537 251.622 423.537C247.739 423.537 244.592 426.687 244.592 430.572C244.592 434.457 247.739 437.606 251.622 437.606Z" fill="black" stroke="black" stroke-width="3"/>
<path d="M197.621 265.582C202.739 265.582 206.887 261.43 206.887 256.309C206.887 251.188 202.739 247.036 197.621 247.036C192.503 247.036 188.354 251.188 188.354 256.309C188.354 261.43 192.503 265.582 197.621 265.582Z" fill="white" stroke="black" stroke-width="3"/>
<path d="M245.551 265.582C250.668 265.582 254.817 261.43 254.817 256.309C254.817 251.188 250.668 247.036 245.551 247.036C240.433 247.036 236.284 251.188 236.284 256.309C236.284 261.43 240.433 265.582 245.551 265.582Z" fill="white" stroke="black" stroke-width="3"/>
<path d="M221.586 247.036C220.342 247.036 219.114 247.318 217.994 247.861C217.435 246.006 216.311 244.372 214.778 243.188C213.245 242.004 211.381 241.329 209.446 241.258C207.511 241.186 205.602 241.722 203.986 242.79C202.371 243.858 201.129 245.404 200.435 247.213C199.741 249.022 199.63 251.003 200.116 252.878C200.603 254.754 201.663 256.43 203.149 257.673C204.635 258.915 206.471 259.662 208.402 259.808C210.333 259.955 212.261 259.494 213.917 258.489C214.486 259.886 215.425 261.101 216.631 262.005C217.838 262.909 219.268 263.467 220.768 263.62C222.267 263.773 223.78 263.515 225.144 262.873C226.508 262.231 227.672 261.23 228.511 259.977C229.35 258.724 229.833 257.266 229.907 255.759C229.981 254.253 229.645 252.754 228.933 251.425C228.222 250.095 227.162 248.984 225.868 248.211C224.573 247.438 223.093 247.032 221.586 247.036V247.036Z" fill="white" stroke="black" stroke-width="3"/>
<path d="M238.157 247.062C237.52 245.507 236.473 244.155 235.127 243.149C233.782 242.144 232.189 241.523 230.518 241.354C228.848 241.184 227.163 241.472 225.643 242.186C224.123 242.901 222.826 244.015 221.89 245.41C220.954 246.805 220.414 248.428 220.328 250.106C220.243 251.784 220.614 253.454 221.403 254.937C222.193 256.42 223.37 257.661 224.809 258.526C226.248 259.392 227.895 259.85 229.574 259.852C229.896 259.851 230.218 259.834 230.539 259.801C231.294 261.005 232.346 261.995 233.592 262.676C234.839 263.358 236.24 263.708 237.66 263.693C239.081 263.679 240.474 263.3 241.706 262.593C242.939 261.886 243.97 260.875 244.7 259.656C245.431 258.436 245.837 257.05 245.879 255.629C245.922 254.208 245.599 252.8 244.943 251.539C244.287 250.278 243.318 249.207 242.13 248.428C240.942 247.648 239.574 247.187 238.157 247.087V247.062Z" fill="white" stroke="black" stroke-width="3"/>
<path d="M218.391 250.873C222.273 250.873 225.42 247.724 225.42 243.839C225.42 239.954 222.273 236.804 218.391 236.804C214.508 236.804 211.361 239.954 211.361 243.839C211.361 247.724 214.508 250.873 218.391 250.873Z" fill="white" stroke="black" stroke-width="3"/>
<path d="M241.716 234.246C244.363 234.246 246.509 232.098 246.509 229.45C246.509 226.801 244.363 224.653 241.716 224.653C239.069 224.653 236.923 226.801 236.923 229.45C236.923 232.098 239.069 234.246 241.716 234.246Z" fill="white" stroke="black" stroke-width="3"/>
<path d="M183.453 255.989L196.234 328.891H205.29L195.173 255.989H183.453Z" fill="white" stroke="black" stroke-width="3"/>
<path d="M247.787 255.989L237.665 328.891H246.72L259.501 255.989H247.787Z" fill="white" stroke="black" stroke-width="3"/>
<path d="M231.811 255.989L227.031 328.891H237.664L247.787 255.989H231.811Z" fill="black" stroke="black" stroke-width="3"/>
<path d="M195.173 255.989L205.29 328.891H215.924L211.15 255.989H195.173Z" fill="black" stroke="black" stroke-width="3"/>
<path d="M211.15 255.989L215.924 328.891H227.031L231.811 255.989H211.15Z" fill="white" stroke="black" stroke-width="3"/>
<path d="M335.268 279.228H454.843V515.171H283.575V330.951C283.576 317.232 289.023 304.077 298.718 294.377C308.412 284.677 321.559 279.228 335.268 279.228V279.228Z" fill="white" stroke="black" stroke-width="3"/>
<path d="M467.554 151.291H636.413C650.122 151.292 663.269 156.743 672.962 166.444C682.655 176.145 688.101 189.301 688.101 203.019V515.164H415.86V203.019C415.86 189.3 421.307 176.143 431.001 166.442C440.696 156.741 453.844 151.291 467.554 151.291V151.291Z" fill="white" stroke="black" stroke-width="3"/>
<path d="M406.843 342.232H636.413C650.121 342.233 663.267 347.683 672.96 357.383C682.653 367.082 688.099 380.237 688.101 393.954V515.165H355.15V393.954C355.151 380.236 360.598 367.08 370.293 357.38C379.987 347.681 393.134 342.232 406.843 342.232V342.232Z" fill="white" stroke="black" stroke-width="3"/>
<path d="M515.873 399.652H376.469" stroke="black" stroke-width="3" stroke-miterlimit="10"/>
<path d="M355.15 393.954V515.164" stroke="black" stroke-width="3" stroke-miterlimit="10"/>
<path d="M688.101 278.467H580.01" stroke="black" stroke-width="3" stroke-miterlimit="10"/>
<path d="M395.41 2H110.389V195.128H395.41V2Z" fill="white" stroke="black" stroke-width="3"/>
<path d="M376.239 21.1848H129.561V175.943H376.239V21.1848Z" fill="white" stroke="black" stroke-width="3"/>
<path d="M480.406 248.315C480.406 248.315 420.334 261.744 389.659 279.011C358.115 296.763 355.15 321.678 335.46 381.516C326.82 407.735 322.481 426.562 317.835 439.454L371.446 464.785C374.002 460.04 376.277 455.371 378.156 451.035C378.156 451.035 402.734 449.942 405.08 417.027C406.831 392.438 407.674 374.238 416.25 355.872L562.787 248.033L480.406 248.315Z" fill="black" stroke="black" stroke-width="3"/>
<path d="M295.845 462.47C295.576 462.514 295.308 462.566 295.033 462.604C276.047 465.488 268.122 469.184 264.997 477.798L344.241 514.761C345.145 515.184 346.169 515.278 347.135 515.029C348.102 514.779 348.951 514.201 349.539 513.393V513.393C349.874 512.933 350.114 512.411 350.246 511.858C350.378 511.304 350.399 510.73 350.307 510.169C350.216 509.607 350.014 509.069 349.713 508.586C349.412 508.104 349.018 507.685 348.554 507.356L296.356 483.65C297.587 476.625 297.414 469.426 295.845 462.47V462.47Z" fill="black" stroke="black" stroke-width="3"/>
<path d="M371.446 464.785L317.835 439.454C315.093 447.064 312.243 452.615 308.338 456.42C305.092 459.617 301.104 461.536 295.845 462.47C297.414 469.426 297.587 476.625 296.356 483.65L348.58 507.356C348.378 507.212 348.164 507.086 347.941 506.979L346.024 506.064C349.13 501.588 354.006 494.285 359.22 485.843C363.361 479.224 367.65 471.921 371.446 464.785Z" fill="white" stroke="black" stroke-width="3"/>
<path d="M377.715 451.944L321.918 425.775" stroke="black" stroke-width="3" stroke-linecap="round" stroke-linejoin="round"/>
<path d="M593.2 274.157L590.963 249.511H546.868C546.868 249.511 472.737 267.263 441.225 282.387C409.86 297.428 413.624 332.364 419.535 393.519C422.551 424.695 426.315 446.105 426.117 461.267H484.272C484.592 456.348 484.805 451.157 484.911 445.696C484.911 445.696 507.598 434.946 495.775 400.093C487.857 376.751 481.019 361.295 481.019 341.023H532.17C540.685 341.024 549.106 339.249 556.898 335.812C564.689 332.374 571.679 327.35 577.421 321.058C583.163 314.767 587.532 307.347 590.249 299.271C592.966 291.196 593.971 282.643 593.2 274.157V274.157Z" fill="black" stroke="black" stroke-width="3"/>
<path d="M412.307 489.725C397.532 499.778 392.317 506.352 393.135 515.145L480.629 515.03C481.566 514.991 482.452 514.591 483.101 513.913C483.751 513.236 484.113 512.333 484.113 511.395C484.113 510.456 483.751 509.554 483.101 508.876C482.452 508.199 481.566 507.798 480.629 507.759H422.251C422.251 507.759 419.056 496.964 412.307 489.725Z" fill="black" stroke="black" stroke-width="3"/>
<path d="M426.117 461.268C426.009 469.901 424.616 476.513 421.062 481.731C419.146 484.497 416.706 486.859 413.879 488.683L412.307 489.725C419.062 496.945 422.251 507.759 422.251 507.759H477.517C479.615 499.182 481.22 490.492 482.323 481.731C483.115 475.618 483.805 468.769 484.291 461.268H426.117Z" fill="white" stroke="black" stroke-width="3"/>
<path d="M481.684 266.86C467.56 271.375 450.894 276.9 440.145 282.208C415.598 294.314 412.467 317.918 415.132 357.221" stroke="black" stroke-width="3" stroke-linecap="round" stroke-linejoin="round"/>
<path d="M480.406 342.539H464.551" stroke="black" stroke-width="3" stroke-linecap="round" stroke-linejoin="round"/>
<path d="M484.879 446.777H425.446" stroke="black" stroke-width="3" stroke-miterlimit="10" stroke-linecap="round"/>
<path d="M568.526 279.228H688.101V515.171H516.832V330.951C516.834 317.232 522.281 304.077 531.975 294.377C541.669 284.677 554.817 279.228 568.526 279.228V279.228Z" fill="white" stroke="black" stroke-width="3"/>
<path d="M515.554 341.048V514.403" stroke="black" stroke-width="3" stroke-miterlimit="10"/>
<path d="M361.54 174.773C361.257 174.574 360.955 174.403 360.639 174.261L361.527 174.869L361.54 174.773Z" stroke="black" stroke-width="3"/>
<path d="M65.9744 422.258C51.276 422.258 39.2872 413.44 38.8335 402.434V514.985H93.1537V402.434C92.6616 413.44 80.692 422.258 65.9744 422.258Z" fill="white" stroke="black" stroke-width="3"/>
<path d="M39.843 489.514C57.6728 487.596 78.9088 475.126 74.9211 445.6C71.7258 421.939 48.4 428.654 61.8203 451.036C69.7063 464.19 82.6729 473.15 92.0224 478.298" stroke="black" stroke-width="3" stroke-miterlimit="10" stroke-linecap="round"/>
<path d="M39.6833 462.911C50.3109 470.188 69.1377 486.905 76.3144 513.847" stroke="black" stroke-width="3" stroke-miterlimit="10" stroke-linecap="round"/>
<path d="M39.6193 498.915C46.5914 500.98 55.5319 505.431 62.2612 513.924" stroke="black" stroke-width="3" stroke-miterlimit="10" stroke-linecap="round"/>
<path d="M59.0852 408.292C54.5609 416.177 47.8148 422.554 39.6897 426.626" stroke="black" stroke-width="3" stroke-miterlimit="10" stroke-linecap="round"/>
<path d="M65.9743 422.258C80.6727 422.258 92.6615 413.44 93.1153 402.434H38.8142C39.2871 413.44 51.2567 422.258 65.9743 422.258Z" fill="white" stroke="black" stroke-width="3"/>
<path d="M50.6367 303.632L65.3351 414.265" stroke="black" stroke-width="3" stroke-miterlimit="10" stroke-linecap="round"/>
<path d="M45.9333 348.217L63.1241 413.337" stroke="black" stroke-width="3" stroke-miterlimit="10" stroke-linecap="round"/>
<path d="M99.26 374.199C111.501 368.962 120.252 361.973 118.806 358.589C117.361 355.205 106.265 356.708 94.0241 361.945C81.7831 367.183 73.0318 374.172 74.4777 377.555C75.9235 380.939 87.0189 379.437 99.26 374.199Z" fill="white" stroke="black" stroke-width="3"/>
<path d="M56.1814 388.149C57.4279 384.841 46.367 377.604 31.4762 371.985C16.5854 366.367 3.50351 364.494 2.257 367.802C1.01049 371.11 12.0714 378.346 26.9622 383.965C41.853 389.584 54.9349 391.457 56.1814 388.149Z" fill="white" stroke="black" stroke-width="3"/>
<path d="M76.5102 352.895C85.1282 346.398 90.7803 339.36 89.1345 337.174C87.4888 334.987 79.1683 338.481 70.5503 344.977C61.9323 351.474 56.2802 358.512 57.926 360.698C59.5718 362.885 67.8922 359.391 76.5102 352.895Z" fill="white" stroke="black" stroke-width="3"/>
<path d="M84.507 317.061L67.8914 419.381" stroke="black" stroke-width="3" stroke-miterlimit="10" stroke-linecap="round"/>
<path d="M57.1233 327.664C55.5881 325.117 53.4632 322.977 50.9279 321.424C48.3926 319.872 45.5212 318.952 42.5562 318.743C39.5911 318.534 36.6193 319.042 33.8915 320.223C31.1637 321.405 28.76 323.226 26.8831 325.532C25.0062 327.839 23.7112 330.563 23.1074 333.475C22.5037 336.388 22.6088 339.403 23.414 342.266C24.2191 345.129 25.7007 347.757 27.7337 349.927C29.7667 352.097 32.2914 353.745 35.0949 354.734C36.0324 348.67 38.5674 342.966 42.4391 338.208C46.3108 333.45 51.3794 329.811 57.1233 327.664Z" fill="white" stroke="black" stroke-width="3"/>
<path d="M48.6494 339.162C45.2734 331.46 39.2166 325.247 31.6056 321.678" stroke="black" stroke-width="3" stroke-miterlimit="10" stroke-linecap="round"/>
<path d="M45.8439 341.956C39.9896 335.863 32.0976 332.141 23.6748 331.501" stroke="black" stroke-width="3" stroke-miterlimit="10" stroke-linecap="round"/>
<path d="M35.0947 354.734C38.6951 356.003 42.5993 356.129 46.2739 355.094C49.9485 354.06 53.2141 351.915 55.6245 348.953C58.0349 345.991 59.4724 342.356 59.7407 338.546C60.0089 334.735 59.0948 330.935 57.1232 327.664C51.3792 329.811 46.3107 333.45 42.4389 338.208C38.5672 342.966 36.0322 348.67 35.0947 354.734V354.734Z" fill="black" stroke="black" stroke-width="3"/>
<path d="M29.7521 291.609C29.6878 288.636 30.3389 285.691 31.6506 283.023C32.9623 280.354 34.896 278.04 37.2887 276.276C39.6814 274.513 42.4628 273.35 45.3985 272.888C48.3342 272.426 51.3379 272.676 54.1564 273.619C56.975 274.562 59.5255 276.169 61.5931 278.306C63.6606 280.442 65.1845 283.044 66.0361 285.893C66.8877 288.742 67.0422 291.755 66.4864 294.676C65.9306 297.597 64.681 300.342 62.8428 302.679C58.8075 298.058 53.6145 294.597 47.7985 292.651C41.9824 290.705 35.7532 290.346 29.7521 291.609V291.609Z" fill="white" stroke="black" stroke-width="3"/>
<path d="M43.064 296.783C41.7931 288.467 43.5875 279.974 48.1126 272.885" stroke="black" stroke-width="3" stroke-miterlimit="10" stroke-linecap="round"/>
<path d="M46.9175 297.639C48.6087 289.359 53.2856 281.991 60.0566 276.939" stroke="black" stroke-width="3" stroke-miterlimit="10" stroke-linecap="round"/>
<path d="M62.8429 302.679C60.481 305.681 57.25 307.88 53.5917 308.975C49.9334 310.07 46.0264 310.008 42.4049 308.796C38.7834 307.585 35.6243 305.283 33.3596 302.207C31.0948 299.131 29.835 295.429 29.7523 291.609C35.7534 290.346 41.9825 290.705 47.7986 292.651C53.6147 294.596 58.8076 298.058 62.8429 302.679V302.679Z" fill="black" stroke="black" stroke-width="3"/>
<path d="M74.2438 292.907C76.0709 290.561 78.4353 288.688 81.1375 287.448C83.8397 286.208 86.8003 285.637 89.7696 285.782C92.7389 285.928 95.6296 286.786 98.1978 288.284C100.766 289.783 102.936 291.877 104.525 294.391C106.115 296.905 107.076 299.765 107.329 302.729C107.582 305.693 107.118 308.675 105.977 311.422C104.836 314.169 103.052 316.601 100.775 318.513C98.497 320.425 95.7933 321.761 92.8916 322.407C92.6822 316.276 90.8442 310.311 87.5667 305.126C84.2892 299.941 79.6906 295.724 74.2438 292.907V292.907Z" fill="white" stroke="black" stroke-width="3"/>
<path d="M81.2926 305.332C85.5553 298.079 92.3079 292.625 100.292 289.985" stroke="black" stroke-width="3" stroke-miterlimit="10" stroke-linecap="round"/>
<path d="M83.7336 308.44C90.2719 303.089 98.5504 300.335 106.989 300.703" stroke="black" stroke-width="3" stroke-miterlimit="10" stroke-linecap="round"/>
<path d="M92.8915 322.407C89.1663 323.237 85.2758 322.896 81.7515 321.431C78.2273 319.965 75.241 317.447 73.2008 314.219C71.1606 310.992 70.1658 307.212 70.3525 303.398C70.5392 299.583 71.8981 295.92 74.2437 292.907C79.6905 295.723 84.2892 299.941 87.5667 305.126C90.8442 310.31 92.6821 316.275 92.8915 322.407V322.407Z" fill="black" stroke="black" stroke-width="3"/>
<path d="M799.853 513.092C799.795 513.248 799.722 513.398 799.636 513.54C799.724 513.399 799.796 513.249 799.853 513.092V513.092Z" fill="white" stroke="black" stroke-width="3"/>
<path d="M769.396 499.004L752.646 514.992H795.463C797.719 514.992 799.035 514.467 799.623 513.566C796.326 514.18 777.205 503.481 769.396 499.004Z" fill="white" stroke="black" stroke-width="3" stroke-linejoin="round"/>
<path d="M799.853 513.092C801.988 507.074 780.125 488.791 780.125 488.791L769.396 499.023C777.205 503.5 796.326 514.198 799.623 513.578C799.716 513.424 799.793 513.261 799.853 513.092Z" fill="black" stroke="black" stroke-width="3"/>
<path d="M796.741 455.512C796.102 458.71 766.705 463.826 766.705 463.826L764.865 451.624L764.149 451.675L768.916 488.127C768.916 488.127 798.658 461.907 796.741 455.512Z" fill="white" stroke="black" stroke-width="3"/>
<path d="M796.741 455.512C795.08 449.974 769.492 451.336 764.865 451.624L766.705 463.825C766.705 463.825 796.102 458.709 796.741 455.512Z" fill="black" stroke="black" stroke-width="3"/>
<path d="M761.395 455.154L762.5 432.126" stroke="black" stroke-width="3" stroke-linecap="round" stroke-linejoin="round"/>
<path d="M756.902 452.634L750.927 423.262" stroke="black" stroke-width="3" stroke-linecap="round" stroke-linejoin="round"/>
<path d="M659.343 515.164L629.447 475.305L643.366 460.596C642.088 456.12 636.337 436.295 628.668 429.9C620.999 423.505 613.969 423.505 610.135 424.784L610.02 424.823C609.074 425.173 608.241 425.775 607.611 426.564C606.982 427.353 606.58 428.299 606.448 429.3C606.317 430.301 606.461 431.319 606.865 432.244C607.269 433.169 607.918 433.966 608.742 434.549L615.887 440.804C615.887 440.804 599.91 452.954 599.91 466.384C599.91 475.746 604.959 480.542 609.962 483.01L596.715 501.556C596.715 501.556 583.294 503.474 557.093 495.8C549.111 493.46 540.477 489.405 532.412 485.684C532.412 494.394 528.412 501.37 522.488 506.506C536.074 511.865 553.367 515.164 566.788 515.164H659.343Z" fill="white" stroke="black" stroke-width="3"/>
<path d="M578.821 501.236C581.045 505.527 583.774 509.927 588.586 513.821" stroke="black" stroke-width="3" stroke-miterlimit="10" stroke-linecap="round"/>
<path d="M641.449 458.39L636.337 462.227" stroke="black" stroke-width="3" stroke-miterlimit="10" stroke-linecap="round"/>
<path d="M532.413 485.684C518.992 479.525 507.17 474.467 502.773 480.453C495.264 490.685 506.205 500.072 522.488 506.506C528.412 501.371 532.444 494.394 532.413 485.684Z" fill="black" stroke="black" stroke-width="3"/>
<path d="M776.291 472.759C776.291 470.048 779.704 466.492 782.388 465.399C777.384 451.675 757.336 439.742 736.669 450.396C736.669 450.396 734.113 437.606 727.083 432.49C720.507 427.7 713.663 427.227 708.55 429.146L708.397 429.203C707.475 429.573 706.662 430.171 706.034 430.941C705.406 431.711 704.984 432.628 704.807 433.607C704.631 434.585 704.706 435.592 705.025 436.533C705.345 437.474 705.898 438.319 706.633 438.988L715.58 447.199L711.107 456.005C706.549 451.871 701.195 448.714 695.373 446.725C694.868 470.649 663.477 481.188 647.84 475.976C642.344 468.302 637.8 464.363 636.637 463.423L636.336 463.679C636.336 463.679 622.916 454.873 610.774 463.826C610.774 463.826 604.383 449.117 596.715 443.215C590.228 438.22 577.543 438.099 574.348 441.296L574.252 441.392C573.514 442.146 572.955 443.057 572.616 444.057C572.278 445.057 572.169 446.121 572.297 447.168C572.426 448.216 572.788 449.222 573.358 450.11C573.927 450.999 574.689 451.748 575.587 452.302L584.573 457.923C584.573 457.923 561.566 492.456 592.241 515.164H755.202C779.665 515.164 785.404 495.525 784.854 479.775C781.959 479.02 776.291 476.993 776.291 472.759Z" fill="white" stroke="black" stroke-width="3"/>
<path d="M647.84 475.976C663.478 481.188 694.868 470.649 695.373 446.725C688.948 444.454 682.087 443.691 675.319 444.494C656.787 446.674 639.085 461.325 636.637 463.423C637.8 464.363 642.344 468.27 647.84 475.976Z" fill="black" stroke="black" stroke-width="3"/>
<path d="M776.291 472.759C776.291 476.993 781.959 479.02 784.854 479.794C784.73 475.205 783.999 470.653 782.682 466.256C782.592 465.974 782.483 465.699 782.388 465.418C779.704 466.492 776.291 470.048 776.291 472.759Z" fill="white" stroke="black" stroke-width="3"/>
<path d="M771.159 474.288L780.247 472.945" stroke="black" stroke-width="3" stroke-linecap="round" stroke-linejoin="round"/>
<path d="M738.292 450.716C740.893 461.204 744.095 475.861 745.322 485.249" stroke="black" stroke-width="3" stroke-linecap="round" stroke-linejoin="round"/>
<path d="M710.148 435.368L707.771 438.93" stroke="black" stroke-width="3" stroke-linecap="round" stroke-linejoin="round"/>
<path d="M714.622 439.205L712.116 442.959" stroke="black" stroke-width="3" stroke-linecap="round" stroke-linejoin="round"/>
<path d="M577.223 446.879L574.821 450.486" stroke="black" stroke-width="3" stroke-linecap="round" stroke-linejoin="round"/>
<path d="M582.336 450.077L579.741 453.965" stroke="black" stroke-width="3" stroke-linecap="round" stroke-linejoin="round"/>
<path d="M710.135 455.608C698.511 476.865 688.912 499.407 707.087 514.32" stroke="black" stroke-width="3" stroke-linecap="round" stroke-linejoin="round"/>
<path d="M654.23 491.004C651.674 479.493 643.807 465.13 633.78 460.948C626.112 457.75 618.443 458.39 611.413 462.227C611.413 462.227 608.378 455.71 605.937 452.142" stroke="black" stroke-width="3" stroke-miterlimit="10" stroke-linecap="round"/>
<path d="M766.302 466.851C766.302 466.851 768.22 472.836 771.159 474.288C771.159 474.288 769.076 477.274 768.731 483.055" stroke="black" stroke-width="3" stroke-linecap="round" stroke-linejoin="round"/>
<path d="M686.183 444.641C686.183 444.641 681.071 453.593 672.763 452.954C664.455 452.314 665.094 440.164 674.68 433.13C678.724 430.749 683.515 429.978 688.1 430.968C696.268 432.752 701.048 449.213 701.048 449.213C701.048 449.213 692.574 445.28 686.183 444.641Z" fill="white" stroke="black" stroke-width="3"/>
<path d="M758.397 393.775L768.916 387.342L764.238 403.713L776.611 396.358" stroke="black" stroke-width="3" stroke-linecap="round" stroke-linejoin="round"/>
<path d="M781.378 367.217L792.453 366.334L782.023 377.596L794.504 376.726" stroke="black" stroke-width="3" stroke-linecap="round" stroke-linejoin="round"/>
<path d="M671.773 446.828L671.76 451.675" stroke="black" stroke-width="3" stroke-linecap="round" stroke-linejoin="round"/>
<path d="M677.62 446.271L677.607 451.074" stroke="black" stroke-width="3" stroke-linecap="round" stroke-linejoin="round"/>
<path d="M610.851 431.077L608.537 433.551" stroke="black" stroke-width="3" stroke-linecap="round" stroke-linejoin="round"/>
<path d="M615.375 434.428L612.621 437.376" stroke="black" stroke-width="3" stroke-linecap="round" stroke-linejoin="round"/>
<path d="M382.182 189.123L361.54 174.869L360.652 174.23C355.188 171.672 340.355 172.407 341.103 166.434C341.263 165.155 342.765 164.189 345.135 163.524L315.138 142.862C314.028 142.101 312.663 141.808 311.338 142.047C310.014 142.287 308.837 143.039 308.064 144.141L304.868 148.739C306.466 150.131 307.496 152.064 307.761 154.167C308.026 156.271 307.507 158.398 306.305 160.143C305.102 161.889 303.299 163.13 301.24 163.63C299.181 164.129 297.01 163.853 295.142 162.853L291.486 168.154C290.723 169.266 290.43 170.633 290.669 171.96C290.908 173.287 291.661 174.466 292.764 175.24L359.802 221.501C360.912 222.265 362.279 222.559 363.605 222.319C364.931 222.08 366.109 221.326 366.883 220.222L372.724 211.749L383.486 196.196C384.242 195.083 384.529 193.716 384.285 192.392C384.041 191.068 383.285 189.894 382.182 189.123ZM343.327 200.993C340.609 200.993 337.953 200.186 335.694 198.675C333.434 197.165 331.673 195.017 330.633 192.505C329.593 189.993 329.321 187.228 329.851 184.561C330.381 181.894 331.69 179.444 333.611 177.521C335.533 175.598 337.981 174.289 340.646 173.758C343.312 173.228 346.074 173.5 348.585 174.541C351.096 175.581 353.241 177.344 354.751 179.605C356.261 181.866 357.067 184.524 357.067 187.243C357.065 190.889 355.617 194.386 353.041 196.964C350.464 199.542 346.97 200.991 343.327 200.993V200.993ZM373.682 198.671L365.694 210.182C365.345 210.68 364.813 211.02 364.215 211.128C363.616 211.235 363 211.102 362.499 210.758C361.999 210.41 361.657 209.878 361.548 209.279C361.439 208.68 361.572 208.062 361.917 207.56L369.912 196.049C370.084 195.801 370.304 195.588 370.558 195.425C370.813 195.261 371.097 195.149 371.395 195.096C371.692 195.042 371.997 195.047 372.293 195.112C372.588 195.176 372.868 195.298 373.117 195.47C373.365 195.643 373.577 195.863 373.741 196.117C373.904 196.372 374.016 196.656 374.07 196.954C374.123 197.252 374.118 197.557 374.054 197.853C373.989 198.149 373.868 198.429 373.695 198.678L373.682 198.671Z" fill="white" stroke="black" stroke-width="3"/>
<path d="M343.327 200.992C350.915 200.992 357.067 194.837 357.067 187.243C357.067 179.65 350.915 173.494 343.327 173.494C335.739 173.494 329.587 179.65 329.587 187.243C329.587 194.837 335.739 200.992 343.327 200.992Z" fill="white" stroke="black" stroke-width="3"/>
<path d="M307.859 155.268C307.86 154.035 307.595 152.816 307.084 151.693C306.572 150.571 305.825 149.572 304.894 148.764L295.167 162.878C296.416 163.552 297.813 163.903 299.232 163.901C301.52 163.901 303.714 162.992 305.332 161.373C306.95 159.754 307.859 157.558 307.859 155.268Z" fill="black" stroke="black" stroke-width="3"/>
<path d="M373.088 195.461C372.586 195.117 371.969 194.985 371.371 195.094C370.772 195.203 370.241 195.544 369.893 196.043L361.898 207.554C361.553 208.055 361.42 208.673 361.529 209.273C361.638 209.872 361.98 210.404 362.48 210.751V210.751C362.981 211.096 363.597 211.229 364.196 211.121C364.794 211.013 365.326 210.673 365.675 210.176L373.663 198.665C374.011 198.163 374.146 197.544 374.039 196.943C373.931 196.343 373.589 195.809 373.088 195.461Z" fill="white" stroke="black" stroke-width="3"/>
<path d="M350.676 215.061C350.676 215.061 344.925 221.456 339.173 215.701C339.173 215.701 332.143 217.619 329.587 211.864C329.587 211.864 323.836 214.422 321.279 208.666C321.113 208.295 317.956 210.048 314.889 206.108C310.415 200.353 307.859 184.365 311.693 183.726C318.276 182.626 321.062 194.981 321.177 194.597C322.615 189.731 325.107 185.644 327.67 185.644C332.143 185.644 332.783 190.121 332.783 190.121C332.783 190.121 335.486 186.508 339.173 187.563C343.647 188.842 342.368 194.597 342.368 194.597C342.368 194.597 346.471 191.873 348.759 195.876C351.315 200.353 346.203 206.108 346.842 212.503L350.676 215.061Z" fill="white" stroke="black" stroke-width="3"/>
<path d="M341.998 193.6C339.269 198.37 334.968 207.617 337.678 214.767" stroke="black" stroke-width="3" stroke-linecap="round" stroke-linejoin="round"/>
<path d="M332.252 189.162C330.52 193.254 326.89 203.179 328.456 211.179" stroke="black" stroke-width="3" stroke-linecap="round" stroke-linejoin="round"/>
<path d="M320.468 192.999C319.624 197.091 319.004 202.546 320.091 207.528" stroke="black" stroke-width="3" stroke-linecap="round" stroke-linejoin="round"/>
<path d="M561.566 98.0334C569.235 95.4754 578.182 84.6039 571.791 75.651C563.324 63.7819 548.785 79.488 548.785 79.488C542.627 74.993 537.953 68.757 535.365 61.582C533.448 62.2215 527.696 62.861 523.223 61.582C523.223 61.582 521.306 66.698 520.027 75.651C519.855 76.8788 519.65 78.0619 519.427 79.2002C519.427 79.2002 513.637 78.8485 512.998 81.4064C512.205 84.5656 517.273 87.9613 517.273 87.9613C515.292 95.1045 513.643 100.598 516.193 106.986C518.443 112.62 523.223 119.137 538.56 117.218L537.685 123.933H583.422C583.678 121.254 583.978 118.062 584.298 114.616C579.109 112.87 566.123 107.664 561.566 98.0334Z" fill="white" stroke="black" stroke-width="3"/>
<path d="M566.679 40.4786C548.146 32.1651 530.891 44.955 530.891 44.955C530.891 44.955 515.132 40.4146 514.276 50.7105C513.637 58.3845 523.223 61.582 523.223 61.582C527.696 62.861 533.448 62.2215 535.365 61.582C537.953 68.7569 542.626 74.993 548.785 79.4879C548.785 79.4879 563.324 63.7818 571.791 75.6509C578.182 84.6039 569.235 95.4753 561.566 98.0333C566.123 107.664 579.109 112.87 584.298 114.615C585.423 102.42 586.771 86.9764 587.129 79.4879C587.71 67.2799 586.49 49.374 566.679 40.4786Z" fill="black" stroke="black" stroke-width="3"/>
<path d="M439.506 181.168C439.506 181.168 394.771 168.378 377.517 164.541C367.023 162.207 352.184 161.574 345.123 163.55C342.752 164.189 341.25 165.174 341.09 166.459C340.343 172.432 355.15 171.69 360.639 174.255L382.182 189.123C383.285 189.897 384.038 191.076 384.278 192.403C384.517 193.73 384.223 195.098 383.46 196.209L372.749 211.749C389.233 220.295 407.055 225.958 425.446 228.491C442.401 230.838 462.979 221.399 477.709 212.714L452.996 171.895C445.053 177.318 439.506 181.168 439.506 181.168Z" fill="white" stroke="black" stroke-width="3"/>
<path d="M583.422 123.933H537.685L536.643 131.927C536.643 131.927 514.18 131.453 498.299 141.519C486.298 149.123 466.295 162.738 452.996 171.863L477.709 212.714C484.409 208.785 490.859 204.443 497.021 199.713L480.406 248.315H590.963L582.655 131.927C582.655 131.927 582.969 128.761 583.422 123.933Z" fill="white" stroke="black" stroke-width="3"/>
<path d="M535.365 133.525L534.406 141.199" stroke="black" stroke-width="3" stroke-linecap="round" stroke-linejoin="round"/>
<path d="M505.009 173.174L496.382 198.754" stroke="black" stroke-width="3" stroke-linecap="round" stroke-linejoin="round"/>
<path d="M522.488 94.4968C523.542 93.8573 527.504 93.3265 529.108 96.377" stroke="black" stroke-width="3" stroke-linecap="round" stroke-linejoin="round"/>
<path d="M530.252 78.8482C531.311 78.8482 532.17 77.9893 532.17 76.9297C532.17 75.8702 531.311 75.0112 530.252 75.0112C529.194 75.0112 528.335 75.8702 528.335 76.9297C528.335 77.9893 529.194 78.8482 530.252 78.8482Z" fill="black" stroke="black" stroke-width="3"/>
<path d="M563.484 83.3247L556.454 87.8012" stroke="black" stroke-width="3" stroke-linecap="round" stroke-linejoin="round"/>
<path d="M546.14 125.199L545.111 133.493" stroke="black" stroke-width="3" stroke-linecap="round" stroke-linejoin="round"/>
<path d="M555.719 125.199L554.697 133.493" stroke="black" stroke-width="3" stroke-linecap="round" stroke-linejoin="round"/>
<path d="M565.299 125.199L564.276 133.493" stroke="black" stroke-width="3" stroke-linecap="round" stroke-linejoin="round"/>
<path d="M539.027 118.344C542.075 117.806 546.318 116.687 549.744 114.34" stroke="black" stroke-width="3" stroke-linecap="round" stroke-linejoin="round"/>
<path d="M586.631 214.422L587.768 238.083C587.768 238.083 533.902 253.188 515.503 267.001C507.195 273.236 496.97 284.965 493.187 289.882C489.404 294.8 473.836 317.381 480.406 318.02C486.975 318.66 497.104 304.482 497.104 304.482C497.104 304.482 490.631 321.857 492.548 327.613C494.465 333.368 500.408 329.397 500.408 329.397C505.968 335.926 510.902 328.719 510.902 328.719C520.667 335.926 530.598 300.517 530.598 300.517C535.985 297.88 540.794 294.198 544.746 289.684C544.746 289.684 599.463 291.852 620.999 273.895C631.78 264.904 637.104 240.948 637.315 214.422H586.631Z" fill="white" stroke="black" stroke-width="3"/>
<path d="M628.668 153.67C623.932 139.223 608.218 131.927 598.632 131.927H582.655L586.63 214.422H637.314C637.474 193.779 634.541 171.582 628.668 153.67Z" fill="white" stroke="black" stroke-width="3"/>
<path d="M588.043 213.846L586.17 174.453" stroke="black" stroke-width="3" stroke-linecap="round" stroke-linejoin="round"/>
<path d="M588.784 236.453L598.313 233.927" stroke="black" stroke-width="3" stroke-linecap="round" stroke-linejoin="round"/>
<path d="M495.603 305.589C497.609 300.217 500.67 292.255 503.092 287.005" stroke="black" stroke-width="3" stroke-linecap="round" stroke-linejoin="round"/>
<path d="M512.039 291.481C505.188 306.247 501.175 322.817 499.897 328.803" stroke="black" stroke-width="3" stroke-linecap="round" stroke-linejoin="round"/>
<path d="M521.625 296.597C517.241 306.695 513.196 320.156 510.998 327.996" stroke="black" stroke-width="3" stroke-linecap="round" stroke-linejoin="round"/>
<path d="M225.59 104.904V103.404H224.09H218.628V65.7754V64.2754H217.128H203.116H202.269L201.832 64.9997L178.83 103.071L178.614 103.429V103.847V114.51V116.01H180.114H203.29V128.346V129.846H204.79H217.128H218.628V128.346V116.01H224.09H225.59V114.51V104.904ZM323.529 104.904V103.404H322.029H316.567V65.7754V64.2754H315.067H301.055H300.208L299.771 64.9997L276.769 103.071L276.553 103.429V103.847V114.51V116.01H278.053H301.229V128.346V129.846H302.729H315.067H316.567V128.346V116.01H322.029H323.529V114.51V104.904ZM203.291 103.404H191.804L203.47 83.4138C203.455 84.333 203.439 85.3581 203.422 86.4859C203.361 90.768 203.299 96.4912 203.291 103.404ZM228.024 97.854C228.024 108.93 229.771 117.336 233.602 123.006C237.513 128.794 243.447 131.521 251.204 131.521C258.961 131.521 264.895 128.794 268.806 123.006C272.637 117.336 274.383 108.93 274.383 97.854C274.383 86.778 272.637 78.3925 268.804 72.7435C264.891 66.9766 258.956 64.2754 251.204 64.2754C243.451 64.2754 237.517 66.9766 233.604 72.7435C229.771 78.3925 228.024 86.778 228.024 97.854ZM243.715 97.854C243.715 89.7723 244.212 84.4852 245.465 81.2426C246.075 79.6625 246.825 78.6796 247.686 78.0763C248.542 77.4763 249.66 77.1457 251.204 77.1457C252.748 77.1457 253.866 77.4763 254.722 78.0763C255.583 78.6796 256.333 79.6625 256.943 81.2426C258.196 84.4852 258.693 89.7723 258.693 97.854C258.693 105.935 258.196 111.246 256.942 114.512C256.33 116.105 255.579 117.1 254.716 117.71C253.86 118.316 252.744 118.65 251.204 118.65C249.664 118.65 248.548 118.316 247.692 117.71C246.829 117.1 246.077 116.105 245.466 114.512C244.212 111.246 243.715 105.935 243.715 97.854ZM301.23 103.404H289.743L301.409 83.4138C301.394 84.333 301.378 85.3581 301.361 86.4859C301.3 90.768 301.238 96.4912 301.23 103.404Z" stroke="black" stroke-width="3"/>
</svg>
