<svg width="460" height="369" viewBox="0 0 460 369" fill="none" xmlns="http://www.w3.org/2000/svg">
<path d="M83.246 197.888H73.2903V366.984H83.246V197.888Z" fill="white" stroke="black" stroke-width="3"/>
<path d="M83.25 200.213H73.2903" stroke="black" stroke-width="3" stroke-miterlimit="10"/>
<path d="M28.1126 333.054C29.1211 330.163 31.0044 327.658 33.5016 325.886C35.9987 324.113 38.9859 323.161 42.0489 323.161C45.112 323.161 48.0992 324.113 50.5963 325.886C53.0935 327.658 54.9768 330.163 55.9853 333.054C56.9478 330.294 58.7089 327.883 61.045 326.125C63.3812 324.368 66.1872 323.343 69.1069 323.182C67.8034 320.86 66.2512 318.687 64.4777 316.7L59.1188 310.677C57.4528 308.805 56.4035 306.467 56.1134 303.979C55.8233 301.491 56.3065 298.974 57.4973 296.77L62.0455 288.324C60.7686 289.608 53.3869 296.515 42.1827 296.515C30.9785 296.515 23.5968 289.608 22.3199 288.324H22.2997L26.8519 296.77C28.0375 298.979 28.5132 301.499 28.2144 303.987C27.9155 306.475 26.8566 308.811 25.1818 310.677L19.827 316.676C18.0502 318.663 16.494 320.836 15.1855 323.157C18.074 323.358 20.8395 324.404 23.1379 326.163C25.4364 327.923 27.1664 330.319 28.1126 333.054Z" fill="black" stroke="black" stroke-width="3"/>
<path d="M69.9216 341.589C66.8577 341.589 63.8699 342.543 61.3726 344.317C58.8754 346.091 56.9925 348.597 55.9852 351.489C54.9787 348.597 53.096 346.09 50.5986 344.315C48.1013 342.541 45.1131 341.588 42.0489 341.588C38.9847 341.588 35.9965 342.541 33.4991 344.315C31.0017 346.09 29.1191 348.597 28.1125 351.489C26.8936 347.994 24.4052 345.085 21.1407 343.338C17.8762 341.59 14.0738 341.132 10.4873 342.055C10.6932 351.403 14.4631 360.32 21.0267 366.984H63.2615C69.8119 360.334 73.5807 351.44 73.8009 342.111C72.537 341.765 71.2323 341.589 69.9216 341.589V341.589Z" fill="black" stroke="black" stroke-width="3"/>
<path d="M42.1501 296.531C53.3544 296.531 60.736 289.624 62.0129 288.34H22.2874C23.5642 289.612 30.9459 296.531 42.1501 296.531Z" fill="white" stroke="black" stroke-width="3"/>
<path d="M28.1123 351.489C29.1189 348.597 31.0016 346.09 33.4989 344.315C35.9963 342.541 38.9845 341.588 42.0487 341.588C45.1129 341.588 48.1011 342.541 50.5985 344.315C53.0959 346.09 54.9785 348.597 55.9851 351.489C57.2141 347.957 59.7399 345.024 63.0513 343.283C66.3627 341.542 70.2123 341.123 73.8211 342.111C73.9876 335.493 72.3615 328.953 69.1148 323.182C66.195 323.343 63.3891 324.368 61.0529 326.125C58.7168 327.883 56.9557 330.294 55.9932 333.054C54.9847 330.163 53.1013 327.658 50.6042 325.885C48.1071 324.113 45.1199 323.16 42.0568 323.16C38.9938 323.16 36.0066 324.113 33.5094 325.885C31.0123 327.658 29.1289 330.163 28.1204 333.054C27.1684 330.326 25.4359 327.937 23.1379 326.185C20.8399 324.432 18.0775 323.392 15.1934 323.194C11.9612 328.945 10.3383 335.46 10.4953 342.055C14.0818 341.132 17.8841 341.59 21.1487 343.338C24.4132 345.085 26.9015 347.994 28.1204 351.489H28.1123Z" fill="white" stroke="black" stroke-width="3"/>
<path d="M45.093 295.372C45.9037 290.414 49.5885 270.759 58.8551 260.077" stroke="black" stroke-width="3" stroke-miterlimit="10" stroke-linecap="round"/>
<path d="M40.8165 295.514C40.7557 289.884 40.1761 262.236 34.6753 245.741" stroke="black" stroke-width="3" stroke-miterlimit="10" stroke-linecap="round"/>
<path d="M65.1975 276.169C73.3224 272.597 79.257 268.22 78.4527 266.393C77.6484 264.566 70.4099 265.982 62.285 269.554C54.16 273.127 48.2255 277.504 49.0298 279.331C49.834 281.157 57.0726 279.742 65.1975 276.169Z" fill="white" stroke="black" stroke-width="3"/>
<path d="M65.1926 225.912C68.1136 221.965 69.3653 217.941 67.9884 216.923C66.6115 215.906 63.1274 218.28 60.2064 222.226C57.2854 226.172 56.0337 230.196 57.4106 231.214C58.7875 232.232 62.2716 229.858 65.1926 225.912Z" fill="white" stroke="black" stroke-width="3"/>
<path d="M21.2054 278.979C31.7979 277.381 40.155 274.57 39.8716 272.701C39.5883 270.832 30.7717 270.612 20.1793 272.21C9.58686 273.809 1.22972 276.619 1.51308 278.488C1.79645 280.357 10.613 280.577 21.2054 278.979Z" fill="white" stroke="black" stroke-width="3"/>
<path d="M13.8031 251.364V251.392C15.3682 252.267 16.5485 253.695 17.1115 255.397C17.6745 257.098 17.5793 258.948 16.8447 260.583C16.11 262.217 14.7892 263.517 13.1427 264.227C11.4962 264.936 9.64345 265.004 7.94971 264.416V264.44C16.8272 268.426 25.3438 268.73 26.9653 265.121C28.5867 261.511 22.6846 255.35 13.8031 251.364Z" fill="white" stroke="black" stroke-width="3"/>
<path d="M40.0502 222.473C38.1612 221.983 35.7047 224.839 33.909 229.258C31.7484 223.891 28.6149 220.297 26.503 220.994C24.3911 221.691 24.0141 226.439 25.4774 232.037C21.3995 229.558 17.7269 228.723 16.4986 230.242C14.9339 232.179 17.9498 237.202 23.2358 241.467C24.7396 242.692 26.3577 243.769 28.0677 244.684C28.3592 243.527 28.9353 242.461 29.7438 241.583C30.5522 240.705 31.5674 240.042 32.697 239.656C33.8266 239.27 35.0349 239.172 36.2122 239.37C37.3894 239.569 38.4983 240.059 39.4381 240.795C40.2304 239.091 40.8628 237.317 41.3271 235.496C43.0337 228.93 42.4621 223.097 40.0502 222.473Z" fill="white" stroke="black" stroke-width="3"/>
<path d="M81.2596 252.291C80.6759 250.428 76.9506 249.861 72.2484 250.671C75.6616 246 77.056 241.443 75.3494 240.021C73.6429 238.599 69.4068 240.791 65.4261 244.992C65.3775 240.22 64.1412 236.663 62.2035 236.424C59.7349 236.12 57.0595 241.338 56.2325 248.07C55.9875 249.995 55.9278 251.939 56.0542 253.875C57.1914 253.509 58.4023 253.433 59.5766 253.653C60.7508 253.874 61.8513 254.385 62.7778 255.139C63.7043 255.893 64.4275 256.866 64.8815 257.97C65.3356 259.075 65.5061 260.275 65.3775 261.463C67.2444 261.226 69.0858 260.82 70.8783 260.247C77.3519 258.234 82.0014 254.665 81.2596 252.291Z" fill="white" stroke="black" stroke-width="3"/>
<path d="M62.8319 255.18C61.9048 254.407 60.7973 253.881 59.6124 253.651C58.4274 253.421 57.2034 253.494 56.0542 253.863C56.2853 257.067 57.096 259.534 58.3161 260.43C59.4552 261.483 62.09 261.835 65.3694 261.45C65.4972 260.277 65.3324 259.09 64.8896 257.996C64.4469 256.902 63.7399 255.934 62.8319 255.18V255.18Z" fill="white" stroke="black" stroke-width="3"/>
<path d="M32.7698 239.633C31.6237 240.01 30.5916 240.672 29.7695 241.555C28.9475 242.438 28.362 243.514 28.0676 244.684C30.9052 246.183 33.4265 246.79 34.8453 246.239C36.3411 245.834 38.0315 243.781 39.4381 240.795C38.509 240.066 37.4138 239.579 36.2502 239.376C35.0867 239.173 33.891 239.261 32.7698 239.633V239.633Z" fill="white" stroke="black" stroke-width="3"/>
<path d="M14.5938 263.391C13.8315 262.966 13.2567 262.271 12.9831 261.442C12.7095 260.614 12.7572 259.713 13.1166 258.919C13.4761 258.124 14.121 257.493 14.9239 257.151C15.7267 256.809 16.6288 256.78 17.4516 257.071C17.3564 255.899 16.9738 254.769 16.3375 253.78C15.7012 252.791 14.8308 251.973 13.8033 251.4L7.93774 264.416C9.04637 264.802 10.2331 264.911 11.3937 264.733C12.5542 264.554 13.6531 264.093 14.5938 263.391Z" fill="white" stroke="black" stroke-width="3"/>
<path d="M13.102 258.923C12.7485 259.717 12.7055 260.616 12.9816 261.44C13.2577 262.265 13.8329 262.957 14.5938 263.379C15.5681 262.655 16.3417 261.695 16.8417 260.589C17.3417 259.483 17.5516 258.269 17.4516 257.059C16.625 256.765 15.7178 256.794 14.9114 257.139C14.1049 257.485 13.4587 258.122 13.102 258.923V258.923Z" fill="white" stroke="black" stroke-width="3"/>
<path d="M280.99 265.461H177.894L179.637 258.55H224.892L242.152 191.095C244.504 181.907 249.849 173.762 257.345 167.945C264.841 162.129 274.061 158.972 283.552 158.971C306.775 158.971 323.768 180.846 318.008 203.329L307.343 245.008C305.846 250.857 302.443 256.042 297.672 259.745C292.901 263.448 287.031 265.459 280.99 265.461Z" fill="white" stroke="black" stroke-width="3"/>
<path d="M178.693 329.298V336.614H244.398V329.298H178.693Z" fill="white" stroke="black" stroke-width="3"/>
<path d="M255.221 363.054L238.131 261.398H184.955L167.865 363.054C167.785 363.538 167.81 364.033 167.941 364.506C168.071 364.978 168.303 365.417 168.62 365.791C168.937 366.165 169.332 366.465 169.777 366.671C170.222 366.877 170.707 366.984 171.197 366.984V366.984C171.968 366.983 172.715 366.719 173.316 366.236C173.916 365.753 174.333 365.079 174.497 364.326L196.881 261.398H226.221L248.597 364.326C248.761 365.079 249.178 365.753 249.778 366.237C250.378 366.72 251.126 366.984 251.897 366.984V366.984C252.387 366.983 252.871 366.875 253.315 366.669C253.759 366.462 254.153 366.162 254.469 365.788C254.785 365.414 255.016 364.976 255.146 364.504C255.276 364.032 255.302 363.537 255.221 363.054V363.054Z" fill="white" stroke="black" stroke-width="3"/>
<path d="M233.125 329.298V336.614H298.83V329.298H233.125Z" fill="white" stroke="black" stroke-width="3"/>
<path d="M309.653 363.054L292.547 261.398H239.392L222.302 363.054C222.221 363.538 222.247 364.033 222.377 364.506C222.507 364.978 222.739 365.417 223.056 365.791C223.373 366.165 223.768 366.465 224.213 366.671C224.658 366.877 225.143 366.984 225.634 366.984V366.984C226.404 366.984 227.151 366.72 227.751 366.236C228.35 365.753 228.766 365.079 228.929 364.326L251.305 261.398H280.65L303.026 364.326C303.19 365.08 303.607 365.755 304.208 366.238C304.809 366.722 305.558 366.985 306.329 366.984V366.984C306.819 366.983 307.303 366.875 307.747 366.669C308.191 366.462 308.585 366.162 308.901 365.788C309.218 365.414 309.449 364.976 309.578 364.504C309.708 364.032 309.734 363.537 309.653 363.054V363.054Z" fill="white" stroke="black" stroke-width="3"/>
<path d="M255.947 245.008L262.465 219.532H219.265C210.794 219.532 202.564 222.35 195.872 227.542C189.181 232.733 184.409 240.003 182.308 248.204L177.894 265.461H229.59C235.632 265.46 241.502 263.45 246.274 259.746C251.047 256.043 254.45 250.858 255.947 245.008V245.008Z" fill="white" stroke="black" stroke-width="3"/>
<path d="M180.703 257.874H235.549" stroke="black" stroke-width="3" stroke-linecap="round" stroke-linejoin="round"/>
<path d="M225.086 257.618L234.698 220.067" stroke="black" stroke-width="3" stroke-linecap="round" stroke-linejoin="round"/>
<path d="M313.221 218.661H287.277" stroke="black" stroke-width="3" stroke-linecap="round" stroke-linejoin="round"/>
<path d="M318.085 200.432H284.845" stroke="black" stroke-width="3" stroke-linecap="round" stroke-linejoin="round"/>
<path d="M197.007 192.201C197.007 192.201 164.485 201.052 150.67 207.959C127.893 219.338 127.97 226.848 114.082 268.892C101.26 307.748 99.8496 326.58 82.1636 327.326C68.6609 327.893 64.2344 332.308 62.0454 338.36L115.476 363.695C116.089 363.984 116.789 364.029 117.433 363.82C118.077 363.61 118.617 363.163 118.942 362.568V362.568C119.273 361.961 119.354 361.249 119.167 360.583C118.98 359.917 118.54 359.35 117.941 359.004L116.818 358.356C121.784 352.344 131.362 339.535 140.913 320.079L146.993 322.914C146.993 322.914 156.815 310.158 158.372 295.688C160.399 277.002 159.183 264.408 167.724 257.096L267.321 192.185L197.007 192.201Z" fill="black" stroke="black" stroke-width="3"/>
<path d="M76.9141 330.328C77.9721 328.128 83.8498 314.728 87.2305 316.348C91.6287 318.454 80.2137 331.907 80.2137 331.907L76.9141 330.328Z" fill="white" stroke="black" stroke-width="3"/>
<path d="M62.0415 338.551L115.472 363.881C116.091 364.176 116.8 364.22 117.45 364.004C118.101 363.788 118.642 363.328 118.961 362.722C119.28 362.116 119.351 361.41 119.16 360.752C118.969 360.094 118.531 359.536 117.937 359.194L116.814 358.546L116.928 358.408L80.2018 341.082C80.752 339.559 81.138 337.981 81.353 336.375C86.8497 337.327 97.9729 338.352 98.0296 333.771C98.0904 329.501 85.9417 331.215 81.503 332.422C81.4073 330.781 81.0882 329.16 80.5544 327.605C68.3084 328.448 64.1413 332.742 62.0415 338.551Z" fill="white" stroke="black" stroke-width="3"/>
<path d="M150.67 207.959C148.112 209.235 145.846 210.462 143.815 211.694L140.698 221.671L152.697 213.225L163.759 222.039L159.681 209.956L172.211 204.22L162.527 203.004C158.489 204.444 154.531 206.098 150.67 207.959V207.959Z" fill="white" stroke="black" stroke-width="3"/>
<path d="M186.022 202.765L185.211 208.044L190.497 206.014L186.022 202.765Z" fill="white" stroke="black" stroke-width="3"/>
<path d="M155.534 229.169L147.812 239.325L136.835 234.046L143.337 245.012L133.174 253.543L146.182 251.919L150.658 266.951L155.129 251.919L169.357 247.856L155.534 242.168V229.169Z" fill="white" stroke="black" stroke-width="3"/>
<path d="M112.12 306.711L113.068 304.005L126.04 303.316L115.5 296.146L120.195 284.913L109.578 291.986L107.551 289.798C105.93 295.133 104.495 299.885 103.092 304.062H103.157C103.311 303.604 103.465 303.142 103.619 302.672L112.12 306.711Z" fill="white" stroke="black" stroke-width="3"/>
<path d="M112.12 306.711L103.607 302.688C103.453 303.158 103.299 303.62 103.145 304.078C98.0012 319.39 93.3152 327.046 82.1718 327.516C81.6245 327.516 81.0976 327.569 80.5787 327.605C81.1124 329.16 81.4316 330.781 81.5272 332.422C85.9862 331.206 98.1147 329.501 98.0539 333.771C97.989 338.352 86.874 337.327 81.3773 336.375C81.1583 337.981 80.7683 339.559 80.2139 341.082L116.94 358.408C121.934 352.332 131.431 339.588 140.909 320.293L112.12 306.711Z" fill="white" stroke="black" stroke-width="3"/>
<path d="M144.557 275.888L143.341 286.857L131.958 286.452L141.715 293.768L138.067 306.768L147.832 298.232L156.608 304.082C156.852 303.307 157.075 302.522 157.277 301.728L153.913 293.355L159.126 287.647C159.211 286.586 159.292 285.541 159.369 284.524L150.264 286.043L144.557 275.888Z" fill="white" stroke="black" stroke-width="3"/>
<path d="M119.202 253.085C118.176 256.253 117.074 259.692 115.857 263.431L126.672 264.092L119.202 253.085Z" fill="white" stroke="black" stroke-width="3"/>
<path d="M157.391 352.048C157.561 349.618 158.092 334.994 161.829 335.257C166.694 335.598 161.039 352.303 161.039 352.303L157.391 352.048Z" fill="white" stroke="black" stroke-width="3"/>
<path d="M247.418 192.796C247.418 192.796 206.764 200.331 184.404 209.672C161.829 219.107 162.048 235.861 166.11 281.373C169.758 322.116 176.277 341.901 162.867 347.993C150.568 353.583 146.296 360.591 146.88 367H207.421C207.762 367 208.1 366.933 208.415 366.802C208.73 366.672 209.017 366.481 209.258 366.239C209.499 365.998 209.691 365.712 209.821 365.397C209.952 365.082 210.019 364.744 210.019 364.403V364.403C210.019 363.715 209.745 363.054 209.258 362.567C208.771 362.08 208.11 361.807 207.421 361.807H206.399C208.308 355.564 211.077 343.379 211.458 323.214H218.965C218.965 323.214 222.824 305.39 218.56 289.495C214.101 272.841 210.023 269.998 207.587 258.623H244.017C271.837 258.623 292.66 232.908 286.608 205.775C284.719 197.297 281.979 192.812 281.979 192.812L247.418 192.796Z" fill="black" stroke="black" stroke-width="3"/>
<path d="M222.212 216.575L214.75 225.957L203.128 221.966L210.015 233.232L201.073 245.421L212.861 240.544L219.432 252.648L220.178 239.324L231.56 236.89L221.807 230.793L222.212 216.575Z" fill="white" stroke="black" stroke-width="3"/>
<path d="M205.973 288.996L212.865 300.262L203.922 312.451L215.71 307.59L220.08 315.639C220.721 309.384 221.037 300.132 218.994 291.249L217.599 293.003L205.973 288.996Z" fill="white" stroke="black" stroke-width="3"/>
<path d="M175.579 323.198L175.056 316.919L188.255 311.831L175.762 309.243L177.14 295.539L169.033 306.14L168.79 306.038C169.568 312.581 170.249 318.296 170.63 323.242V323.198H175.579Z" fill="white" stroke="black" stroke-width="3"/>
<path d="M207.421 361.79H206.399C208.308 355.548 211.077 343.363 211.458 323.198H170.618V323.234C170.65 323.639 170.679 324.044 170.707 324.449C170.707 324.486 170.707 324.526 170.707 324.563C171.554 337.222 170.172 344.627 162.851 347.953C150.552 353.543 146.28 360.551 146.863 366.959H207.421C208.11 366.959 208.771 366.686 209.258 366.199C209.745 365.712 210.019 365.051 210.019 364.363C210.019 363.674 209.745 363.014 209.258 362.527C208.771 362.04 208.11 361.766 207.421 361.766V361.79Z" fill="white" stroke="black" stroke-width="3"/>
<path d="M261.626 193.845L242.951 195.498L244.896 203L232.95 209.368L247.831 211.357L252.866 222.501L258.042 210.96L273.179 208.57L260.033 201.805L261.626 193.845Z" fill="white" stroke="black" stroke-width="3"/>
<path d="M172.616 246.636L177.075 232.418L190.083 234.443L179.921 225.507L187.218 216.976L173.804 221.837L171.66 218.163C168.21 222.068 166.126 226.917 165.012 233.151L167.298 233.224L172.616 246.636Z" fill="white" stroke="black" stroke-width="3"/>
<path d="M207.421 202.032C204.676 202.794 201.944 203.592 199.277 204.414L210.023 211.706L207.421 202.032Z" fill="white" stroke="black" stroke-width="3"/>
<path d="M189.69 267.762L183.999 255.982L181.153 268.981L170.585 268.171L180.338 276.702L174.242 290.92L184.826 281.061L193.598 291.168L190.91 275.888L199.853 264.108L189.69 267.762Z" fill="white" stroke="black" stroke-width="3"/>
<path d="M165.559 357.039C170.934 355.556 181.425 351.74 179.528 347.572C177.76 343.683 167.505 350.408 164.006 353.401C163.123 351.782 161.995 350.309 160.662 349.034C150.05 354.434 146.324 360.972 146.88 366.984H207.421C208.11 366.984 208.771 366.71 209.258 366.223C209.745 365.736 210.019 365.076 210.019 364.387V364.387C210.019 363.698 209.745 363.038 209.258 362.551C208.771 362.064 208.11 361.791 207.421 361.791H166.52C166.368 360.177 166.046 358.585 165.559 357.039V357.039Z" fill="white" stroke="black" stroke-width="3"/>
<path d="M207.421 259.518L196.954 259.372" stroke="black" stroke-width="3" stroke-miterlimit="10" stroke-linecap="round"/>
<path d="M215.203 200.258C204.36 203.021 192.771 206.411 183.991 210.073C165.263 217.912 162.227 230.777 164.047 260.948" stroke="black" stroke-width="3" stroke-miterlimit="10" stroke-linecap="round"/>
<path d="M352.816 197.888H342.86V366.984H352.816V197.888Z" fill="white" stroke="black" stroke-width="3"/>
<path d="M352.816 200.213H342.86" stroke="black" stroke-width="3" stroke-miterlimit="10"/>
<path d="M208.39 70.7353C202.715 69.9251 189.715 76.0217 189.285 88.073C188.855 100.124 199.622 103.997 201.345 104.86L226.327 100.983L228.05 73.4372L208.39 70.7353Z" fill="black" stroke="black" stroke-width="3"/>
<path d="M252.525 40.8074C263.249 40.8074 271.942 32.12 271.942 21.4037C271.942 10.6873 263.249 2 252.525 2C241.802 2 233.108 10.6873 233.108 21.4037C233.108 32.12 241.802 40.8074 252.525 40.8074Z" fill="black" stroke="black" stroke-width="3"/>
<path d="M239.931 34.7474C241.114 35.2942 231.147 11.6574 226.059 15.3437C221.272 18.8234 233.919 31.9766 239.931 34.7474Z" fill="white" stroke="black" stroke-width="3"/>
<path d="M240.482 36.1934C241.569 37.4897 267.001 28.598 263.482 23.4696C260.118 18.5356 239.396 34.893 240.482 36.1934Z" fill="white" stroke="black" stroke-width="3"/>
<path d="M274.245 101.202C274.245 101.202 291.319 86.9832 280.325 71.1402C273.329 61.0414 254.305 65.0639 254.305 65.0639C254.767 59.5183 256.275 43.5416 244.252 34.7634C232.229 25.9851 216.975 30.6072 211.418 37.5342C205.86 44.4612 207.259 57.4037 205.41 66.6438C203.562 75.8838 204.794 82.1667 210.493 85.1238C215.678 87.8136 221.779 86.1892 221.779 86.1892L221.13 95.9397C221.13 95.9397 209.375 96.3812 202.171 98.9859C184.814 105.265 154.318 148.326 154.318 148.326C135.213 147.515 117.325 146.705 117.325 146.705L126.676 174.332C126.676 174.332 150.252 182.049 167.326 177.573C184.647 173.04 201.069 148.731 201.069 148.731L206.744 164.979L196.987 192.197H281.951L267.722 167.008C270.183 144.672 274.245 101.202 274.245 101.202Z" fill="white" stroke="black" stroke-width="3"/>
<path d="M246.944 94.927L224.649 135.326L215.528 96.3448C211.519 96.7499 206.176 97.5358 202.212 98.9698C184.814 105.265 154.318 148.326 154.318 148.326C135.213 147.515 117.325 146.705 117.325 146.705L126.676 174.332C126.676 174.332 150.252 182.049 167.326 177.573C184.647 173.04 201.069 148.731 201.069 148.731L206.744 164.979L196.987 192.197H281.951L267.722 167.012C270.155 144.668 274.208 101.198 274.208 101.198C270.444 98.9078 266.323 97.2647 262.015 96.3367C257.163 95.243 251.828 95.8952 246.944 94.927Z" fill="white" stroke="black" stroke-width="3"/>
<path d="M131.484 189.357H201.888L185.88 138.835C185.409 137.346 184.476 136.045 183.216 135.122C181.955 134.2 180.434 133.702 178.871 133.702H119.372C118.216 133.701 117.076 133.973 116.045 134.496C115.013 135.018 114.12 135.776 113.437 136.708C112.754 137.641 112.301 138.721 112.114 139.861C111.928 141.001 112.013 142.169 112.363 143.27L125.594 185.051C125.991 186.301 126.776 187.392 127.835 188.166C128.894 188.94 130.172 189.357 131.484 189.357V189.357Z" fill="white" stroke="black" stroke-width="3"/>
<path d="M141.975 156.557C143.843 154.005 152.32 160.746 152.944 161.301C153.268 160.746 157.683 154.009 160.917 156.557C163.727 158.769 157.553 168.649 155.911 171.168C155.842 171.245 155.758 171.306 155.664 171.348C155.57 171.389 155.469 171.411 155.366 171.411C155.263 171.411 155.161 171.389 155.068 171.348C154.974 171.306 154.889 171.245 154.821 171.168C151.825 168.649 140.353 158.769 141.975 156.557Z" fill="black" stroke="black" stroke-width="3"/>
<path d="M152.245 158.266C152.953 158.045 152.98 156.113 152.305 153.949C151.631 151.785 150.511 150.21 149.803 150.43C149.096 150.65 149.069 152.583 149.743 154.747C150.417 156.91 151.538 158.486 152.245 158.266Z" fill="white" stroke="black" stroke-width="3"/>
<path d="M242.768 183.67C242.972 184.323 243.019 185.015 242.906 185.691C242.793 186.366 242.523 187.005 242.118 187.557C241.712 188.109 241.183 188.558 240.572 188.867C239.961 189.177 239.286 189.339 238.601 189.341H131.484C130.172 189.341 128.894 188.924 127.835 188.15C126.776 187.376 125.991 186.284 125.594 185.035L125.156 183.653L242.768 183.67Z" fill="white" stroke="black" stroke-width="3"/>
<path d="M369.971 189.357H56.135V199.512H369.971V189.357Z" fill="white" stroke="black" stroke-width="3"/>
<path d="M307.339 245.008L313.857 219.532H275.834C267.363 219.532 259.133 222.351 252.442 227.542C245.751 232.734 240.98 240.003 238.881 248.204L234.462 265.461H280.978C287.02 265.46 292.891 263.45 297.664 259.747C302.437 256.043 305.841 250.858 307.339 245.008V245.008Z" fill="white" stroke="black" stroke-width="3"/>
<path d="M235.362 258.781L233.858 265.133" stroke="black" stroke-width="3" stroke-linecap="round" stroke-linejoin="round"/>
<path d="M113.936 148.168C109.205 150.529 106.842 154.467 106.842 157.225C106.842 161.252 110.944 162.01 110.944 162.01C110.944 162.01 107.884 166.818 113.206 169.074C113.206 169.074 113.206 174.024 118.164 174.024C118.164 174.024 117.507 177.885 122.68 178.25C127.852 178.614 133.174 175.916 133.624 174.17C134.139 172.108 132.749 170.383 128.995 169.836C128.995 169.836 134.062 167.47 133.26 164.485C132.457 161.499 129.032 161.568 129.032 161.568C129.032 161.568 132.311 159.603 130.56 156.707C128.809 153.811 125.46 154.815 125.46 154.815C125.46 154.815 126.336 152.79 124.804 151.246C122.98 149.423 115.136 151.724 115.136 151.724L113.936 148.168Z" fill="white" stroke="black" stroke-width="3"/>
<path d="M118.2 174.215C122.469 173.192 126.61 171.698 130.548 169.759" stroke="black" stroke-width="3" stroke-miterlimit="10" stroke-linecap="round"/>
<path d="M113.194 169.05C119.112 167.428 124.763 164.954 129.968 161.706" stroke="black" stroke-width="3" stroke-miterlimit="10" stroke-linecap="round"/>
<path d="M110.539 162.585C116.023 160.963 121.205 158.455 125.878 155.159" stroke="black" stroke-width="3" stroke-miterlimit="10" stroke-linecap="round"/>
<path d="M280.346 71.1402C273.349 61.0414 254.325 65.0639 254.325 65.0639C254.787 59.5183 256.295 43.5416 244.272 34.7634C232.249 25.9851 216.995 30.6072 211.438 37.5342C209.176 40.3698 208.069 44.1857 207.425 48.35C211.114 48.9698 216.525 47.7019 216.525 47.7019C223.923 56.0183 230.551 57.3389 230.551 57.3389C235.727 52.1659 244.807 52.3361 246.283 60.1745C247.815 68.3127 234.807 71.9707 234.807 71.9707C234.807 71.9707 233.591 86.5943 240.077 91.8767C242.067 93.4534 244.421 94.5076 246.923 94.9432C251.788 95.9113 257.143 95.2591 262.031 96.3448C266.339 97.2728 270.461 98.9159 274.225 101.206C275.71 99.8981 277.067 98.4522 278.278 96.8876C282.543 91.4837 287.642 81.6725 280.346 71.1402Z" fill="black" stroke="black" stroke-width="3"/>
<path d="M224.243 44.7368C221.811 46.7623 218.973 47.9775 215.706 48.7877" stroke="black" stroke-width="3" stroke-miterlimit="10" stroke-linecap="round"/>
<path d="M221.645 87.1007C223.533 86.4714 225.354 85.6573 227.081 84.6702" stroke="black" stroke-width="3" stroke-miterlimit="10" stroke-linecap="round"/>
<path d="M235.305 63.8002L239.002 61.4912" stroke="black" stroke-width="3" stroke-miterlimit="10" stroke-linecap="round"/>
<path d="M214.093 74.6444C214.859 75.1184 217.741 75.487 218.884 73.2874" stroke="black" stroke-width="3" stroke-miterlimit="10" stroke-linecap="round"/>
<path d="M221.625 64.2498C222.39 64.2498 223.011 63.6295 223.011 62.8644C223.011 62.0993 222.39 61.479 221.625 61.479C220.859 61.479 220.238 62.0993 220.238 62.8644C220.238 63.6295 220.859 64.2498 221.625 64.2498Z" fill="white" stroke="black" stroke-width="3"/>
<path d="M210.133 62.4149C210.898 62.4149 211.519 61.7946 211.519 61.0294C211.519 60.2643 210.898 59.644 210.133 59.644C209.367 59.644 208.746 60.2643 208.746 61.0294C208.746 61.7946 209.367 62.4149 210.133 62.4149Z" fill="white" stroke="black" stroke-width="3"/>
<path d="M214.036 66.3806C213.76 67.2516 213.521 68.1995 213.679 68.5154C213.897 68.9158 214.226 69.2439 214.628 69.4593" stroke="black" stroke-width="3" stroke-miterlimit="10" stroke-linecap="round"/>
<path d="M237.045 77.3746C239.727 77.3746 241.901 75.2018 241.901 72.5216C241.901 69.8414 239.727 67.6687 237.045 67.6687C234.363 67.6687 232.188 69.8414 232.188 72.5216C232.188 75.2018 234.363 77.3746 237.045 77.3746Z" fill="white" stroke="black" stroke-width="3"/>
<path d="M213.683 61.8082C214.523 57.4929 212.052 53.382 208.165 52.6262C204.277 51.8704 200.445 54.7558 199.605 59.0711C198.765 63.3863 201.235 67.4972 205.122 68.2531C209.01 69.0089 212.842 66.1234 213.683 61.8082Z" stroke="black" stroke-width="3" stroke-miterlimit="10" stroke-linecap="round"/>
<path d="M231.296 63.9664C232.136 59.6512 229.666 55.5402 225.778 54.7844C221.891 54.0285 218.058 56.914 217.218 61.2293C216.378 65.5445 218.848 69.6555 222.736 70.4113C226.623 71.1671 230.456 68.2817 231.296 63.9664Z" stroke="black" stroke-width="3" stroke-miterlimit="10" stroke-linecap="round"/>
<path d="M214.016 61.1548L216.817 61.4551" stroke="black" stroke-width="3" stroke-miterlimit="10" stroke-linecap="round"/>
<path d="M255.253 65.5986L254.447 70.7837" stroke="black" stroke-width="3" stroke-miterlimit="10" stroke-linecap="round"/>
<path d="M196.602 138.17L200.525 149.581" stroke="black" stroke-width="3" stroke-linecap="round" stroke-linejoin="round"/>
<path d="M217.332 164.169H207.015" stroke="black" stroke-width="3" stroke-linecap="round" stroke-linejoin="round"/>
<path d="M225.463 134.921L228.714 150.764V165.388" stroke="black" stroke-width="3" stroke-linecap="round" stroke-linejoin="round"/>
<path d="M203.841 98.6174L210.015 112.577L202.698 111.767L228.714 150.764" stroke="black" stroke-width="3" stroke-linecap="round" stroke-linejoin="round"/>
<path d="M263.993 96.9565L253.514 111.767L263.271 110.952L227.494 142.638" stroke="black" stroke-width="3" stroke-linecap="round" stroke-linejoin="round"/>
<path d="M269.441 146.616L261.646 135.736" stroke="black" stroke-width="3" stroke-linecap="round" stroke-linejoin="round"/>
<path d="M278.461 186.72C274.216 185.306 266.6 182.576 262.007 179.833" stroke="black" stroke-width="3" stroke-linecap="round" stroke-linejoin="round"/>
<path d="M161.392 85.922C165.796 85.922 169.365 82.3546 169.365 77.9539C169.365 73.5533 165.796 69.9858 161.392 69.9858C156.988 69.9858 153.418 73.5533 153.418 77.9539C153.418 82.3546 156.988 85.922 161.392 85.922Z" fill="white" stroke="black" stroke-width="3"/>
<path d="M137.561 46.2437L132.919 40.6499C132.205 39.7888 130.927 39.6697 130.065 40.3838L129.965 40.4665C129.104 41.1806 128.984 42.4575 129.699 43.3186L134.341 48.9124C135.056 49.7735 136.334 49.8926 137.195 49.1785L137.295 49.0958C138.157 48.3817 138.276 47.1048 137.561 46.2437Z" fill="white" stroke="black" stroke-width="3"/>
<path d="M145.911 53.0411L141.241 47.4104L57.3028 116.964C56.5707 117.571 56.11 118.444 56.0218 119.39C55.9336 120.337 56.2252 121.28 56.8325 122.011L56.9258 122.125C57.2262 122.487 57.5951 122.786 58.0114 123.006C58.4276 123.225 58.8831 123.361 59.3517 123.404C59.8204 123.448 60.2931 123.399 60.7427 123.26C61.1924 123.121 61.6103 122.895 61.9725 122.595L88.2157 100.841V177.172H95.5406V94.7651L145.911 53.0411Z" fill="black" stroke="black" stroke-width="3"/>
<path d="M132.384 54.6614L134.723 57.497C135.537 58.4808 136.156 59.611 136.547 60.8268" stroke="black" stroke-width="3" stroke-miterlimit="10"/>
<path d="M91.8762 102.531C97.1529 102.531 101.431 98.2559 101.431 92.9827C101.431 87.7096 97.1529 83.4348 91.8762 83.4348C86.5994 83.4348 82.3218 87.7096 82.3218 92.9827C82.3218 98.2559 86.5994 102.531 91.8762 102.531Z" fill="white" stroke="black" stroke-width="3"/>
<path d="M91.8762 96.6527C93.9045 96.6527 95.5488 95.0095 95.5488 92.9826C95.5488 90.9557 93.9045 89.3125 91.8762 89.3125C89.8479 89.3125 88.2036 90.9557 88.2036 92.9826C88.2036 95.0095 89.8479 96.6527 91.8762 96.6527Z" fill="white" stroke="black" stroke-width="3"/>
<path d="M167.938 73.429L155.717 83.5238" stroke="black" stroke-width="3" stroke-miterlimit="10"/>
<path d="M152.105 52.0202C149.535 51.7185 147.18 50.4389 145.53 48.4473L142.287 44.5302C141.141 43.1512 139.494 42.2832 137.708 42.1169C135.921 41.9505 134.142 42.4994 132.761 43.643V43.643C132.077 44.2095 131.512 44.905 131.097 45.6898C130.683 46.4746 130.427 47.3334 130.345 48.217C130.262 49.1006 130.355 49.9918 130.617 50.8397C130.879 51.6876 131.306 52.4755 131.873 53.1585L135.116 57.0879C136.759 59.0737 137.576 61.6144 137.398 64.185L136.588 76.0297C136.186 81.8253 137.658 87.5965 140.787 92.4925L141.825 94.1129L180.711 61.88L179.317 60.5716C175.084 56.5922 169.684 54.0773 163.913 53.3975L152.105 52.0202Z" fill="white" stroke="black" stroke-width="3"/>
<path d="M95.5403 177.172H88.2154L77.3882 180.121C75.3609 180.674 73.5718 181.877 72.2965 183.546C71.0212 185.215 70.3305 187.257 70.3308 189.357H113.421C113.421 187.256 112.73 185.214 111.454 183.545C110.177 181.876 108.387 180.673 106.359 180.121L95.5403 177.172Z" fill="white" stroke="black" stroke-width="3"/>
<path d="M173.334 56.1479L137.747 85.5411" stroke="black" stroke-width="3" stroke-miterlimit="10" stroke-linecap="round"/>
<path d="M88.0374 176.333H95.5406" stroke="black" stroke-width="3" stroke-miterlimit="10" stroke-linecap="round"/>
<path d="M71.7539 184.293H111.755" stroke="black" stroke-width="3" stroke-miterlimit="10" stroke-linecap="round"/>
<path d="M302.3 293.861C303.111 286.975 302.705 271.517 293.763 259.737C284.821 247.957 297.006 252.85 300.654 256.091C306.492 261.276 311.632 266.247 316.103 282.904L302.3 293.861Z" fill="white" stroke="black" stroke-width="3"/>
<path d="M410.277 366.984H458V365.424C457.999 363.226 457.124 361.118 455.568 359.564C454.012 358.009 451.902 357.136 449.702 357.136H410.029L410.277 366.984Z" fill="white" stroke="black" stroke-width="3"/>
<path d="M293.86 321.452L303.925 366.984H322.629V364.148C322.629 362.32 321.903 360.566 320.612 359.271C319.32 357.977 317.567 357.247 315.737 357.241V357.241C315.737 357.241 325.085 350.237 330.776 343.331C330.776 343.331 340.534 355.212 354.356 353.178L355.358 358.039C355.878 360.562 357.253 362.829 359.25 364.458C361.247 366.087 363.745 366.979 366.323 366.984H411.654C431.76 366.984 441.651 363.917 442.219 352.478C442.236 352.041 442.165 351.606 442.01 351.198C441.855 350.789 441.619 350.417 441.316 350.102C441.013 349.787 440.65 349.537 440.248 349.366C439.845 349.195 439.413 349.107 438.976 349.107H426.321C425.799 349.108 425.283 348.991 424.813 348.766C424.342 348.541 423.928 348.213 423.601 347.807L418.213 341.127C416.616 339.15 414.485 337.673 412.073 336.871C409.661 336.069 407.069 335.976 404.605 336.602L393.77 339.369C393.77 339.369 374.572 311.799 357.182 292.65C340.562 274.369 309.3 272.396 296.985 296.207C293.026 303.999 291.92 312.93 293.86 321.452V321.452Z" fill="white" stroke="black" stroke-width="3"/>
<path d="M407.184 366.984V365.424C407.184 364.336 406.969 363.257 406.552 362.252C406.135 361.246 405.523 360.332 404.753 359.562C403.982 358.793 403.068 358.182 402.061 357.766C401.054 357.35 399.975 357.136 398.886 357.136H393.361" stroke="black" stroke-width="3" stroke-miterlimit="10"/>
<path d="M331.531 343.655C334.368 340.28 344.052 327.856 343.359 315.704C342.617 302.701 334.822 295.798 334.822 295.798" stroke="black" stroke-width="3" stroke-miterlimit="10" stroke-linecap="round"/>
<path d="M351.896 336.011C351.896 336.011 352.415 345.624 353.457 352.802" stroke="black" stroke-width="3" stroke-miterlimit="10" stroke-linecap="round"/>
<path d="M312.872 362.823V366.579" stroke="black" stroke-width="3" stroke-miterlimit="10" stroke-linecap="round"/>
<path d="M317.343 362.823V366.579" stroke="black" stroke-width="3" stroke-miterlimit="10" stroke-linecap="round"/>
<path d="M398.241 362.823V366.579" stroke="black" stroke-width="3" stroke-miterlimit="10" stroke-linecap="round"/>
<path d="M402.712 362.823V366.579" stroke="black" stroke-width="3" stroke-miterlimit="10" stroke-linecap="round"/>
<path d="M414.703 351.854C415.713 351.854 416.531 351.036 416.531 350.027C416.531 349.018 415.713 348.2 414.703 348.2C413.694 348.2 412.875 349.018 412.875 350.027C412.875 351.036 413.694 351.854 414.703 351.854Z" fill="black" stroke="black" stroke-width="3"/>
<path d="M404.727 336.566V336.517L393.754 339.353L404.589 336.586L404.727 336.566Z" fill="white" stroke="black" stroke-width="3"/>
<path d="M377.722 357.319C374.544 358.939 370.052 362.111 370.425 366.915H388.075L391.784 361.07C392.39 360.114 393.228 359.326 394.22 358.78C395.212 358.234 396.326 357.947 397.459 357.946H398.639L404.687 336.687L404.597 336.594L393.762 339.361L383.389 352.64C381.862 354.592 379.928 356.188 377.722 357.319V357.319Z" fill="white" stroke="black" stroke-width="3"/>
<path d="M351.945 302.575C351.945 302.575 347.036 319.556 362.89 325.969C370.928 329.209 377.604 326.751 382.238 323.538C375.237 314.221 365.974 302.36 357.178 292.671C354.972 290.245 352.494 288.083 349.792 286.226C347.393 289.491 344.766 297.568 351.945 302.575Z" fill="black" stroke="black" stroke-width="3"/>
<path d="M311.449 314.89C315.154 314.89 318.158 311.888 318.158 308.185C318.158 304.483 315.154 301.481 311.449 301.481C307.744 301.481 304.74 304.483 304.74 308.185C304.74 311.888 307.744 314.89 311.449 314.89Z" fill="black" stroke="black" stroke-width="3"/>
<path d="M438.992 349.107H436.56C436.426 349.785 436.444 350.484 436.612 351.154C436.78 351.824 437.095 352.449 437.533 352.983C437.971 353.517 438.522 353.948 439.147 354.245C439.771 354.541 440.453 354.696 441.145 354.698C441.43 354.697 441.715 354.67 441.996 354.617C442.12 353.909 442.2 353.195 442.235 352.478C442.253 352.041 442.182 351.606 442.027 351.198C441.871 350.789 441.635 350.417 441.332 350.102C441.03 349.787 440.666 349.537 440.264 349.366C439.862 349.195 439.429 349.107 438.992 349.107Z" fill="white" stroke="black" stroke-width="3"/>
<path d="M448.648 362.823V366.485" stroke="black" stroke-width="3" stroke-miterlimit="10" stroke-linecap="round"/>
<path d="M453.119 362.823V366.485" stroke="black" stroke-width="3" stroke-miterlimit="10" stroke-linecap="round"/>
<path d="M424.116 366.498C434.055 365.497 439.982 362.807 442.134 357.083" stroke="black" stroke-width="3" stroke-linecap="round" stroke-linejoin="round"/>
<path d="M262.052 153.369C257.049 152.921 252.019 152.866 247.008 153.203C239.842 153.79 230.206 155.666 226.335 157.537C222.464 159.409 207.64 166.016 211.632 168.232C215.281 170.257 222.934 167.211 222.934 167.211C222.934 167.211 215.297 174.227 213.984 177.164C212.67 180.101 217.012 181.749 217.012 181.749C218.155 186.764 223.27 184.609 223.27 184.609C226.493 191.459 243.903 176.617 243.903 176.617C248.046 177.047 252.228 176.871 256.32 176.094C256.32 176.094 258.525 177.33 262.064 179.048L262.052 153.369Z" fill="white" stroke="black" stroke-width="3"/>
<path d="M305.547 187.733C338.069 172.295 290.925 114.614 274.245 101.202L264.897 138.984L276.685 155.232C271.521 154.341 266.583 153.73 262.051 153.369V179.048C272.372 184.063 294.059 193.201 305.547 187.733Z" fill="white" stroke="black" stroke-width="3"/>
<path d="M221.377 167.636C224.264 165.25 229.055 161.394 232.63 159.069" stroke="black" stroke-width="3" stroke-miterlimit="10" stroke-linecap="round"/>
<path d="M236.57 164.768C228.264 170.144 220.696 177.326 216.951 181.085" stroke="black" stroke-width="3" stroke-miterlimit="10" stroke-linecap="round"/>
<path d="M240.255 170.849C234.58 174.742 227.993 180.644 223.692 184.695" stroke="black" stroke-width="3" stroke-miterlimit="10" stroke-linecap="round"/>
<path d="M337.826 168.665C338.441 168.666 339.03 168.911 339.464 169.345C339.899 169.779 340.144 170.368 340.145 170.982V171.327C340.144 171.941 339.899 172.53 339.464 172.964C339.03 173.398 338.441 173.643 337.826 173.644H325.88V168.665H337.826ZM337.826 165.424H323.075C323.017 165.424 322.96 165.436 322.906 165.458C322.853 165.48 322.804 165.513 322.764 165.554C322.723 165.595 322.691 165.644 322.669 165.697C322.647 165.751 322.636 165.808 322.637 165.866V176.459C322.637 176.575 322.683 176.686 322.765 176.768C322.847 176.85 322.959 176.897 323.075 176.897H337.826C338.557 176.897 339.282 176.752 339.957 176.472C340.633 176.192 341.246 175.782 341.763 175.264C342.279 174.747 342.689 174.133 342.968 173.457C343.246 172.782 343.389 172.058 343.388 171.327V170.97C343.388 169.496 342.802 168.082 341.759 167.04C340.716 165.998 339.301 165.412 337.826 165.412V165.424Z" fill="black" stroke="black" stroke-width="3"/>
<path d="M319.99 163.678C307.91 163.678 302.328 154.058 302.328 154.058L310.436 189.357H329.52L337.627 154.058C335.745 157.024 333.138 159.463 330.053 161.146C326.968 162.829 323.505 163.7 319.99 163.678Z" fill="white" stroke="black" stroke-width="3"/>
<path d="M319.99 163.678C323.509 163.704 326.977 162.835 330.067 161.152C333.156 159.469 335.767 157.027 337.652 154.058H302.328C302.328 154.058 307.91 163.678 319.99 163.678Z" fill="white" stroke="black" stroke-width="3" stroke-linejoin="round"/>
</svg>
