<svg width="148" height="19" viewBox="0 0 148 19" fill="none" xmlns="http://www.w3.org/2000/svg">
<path d="M4.872 18H8.232C10.08 9.12 10.368 7.872 10.896 4.56H10.944C11.52 7.872 11.832 9.552 13.608 18H17.064L21.912 0.768002H18.264C16.032 10.248 15.744 11.736 15.456 13.368H15.408C15.024 11.136 14.856 10.224 12.84 0.768002H9.024C7.2 9.816 6.936 11.568 6.624 13.368H6.576C6.264 11.4 6.048 10.2 3.84 0.768002H0L4.872 18Z" fill="white"/>
<path d="M35.3841 9.168C35.3841 6.36 33.4401 4.896 30.9441 4.896C29.1201 4.896 27.6801 5.832 27.2481 6.888H27.2001V0.768002H23.8401V18H27.2001V10.68C27.2001 8.736 28.3521 7.728 29.8401 7.728C31.9761 7.728 32.0241 9.312 32.0241 10.248V18H35.3841V9.168Z" fill="white"/>
<path d="M48.8559 8.592C48.8559 5.448 45.5679 4.896 43.7679 4.896C41.1519 4.896 38.4399 5.448 38.0559 9.36H41.2959C41.3919 8.616 41.6799 7.584 43.3599 7.584C44.2239 7.584 45.5679 7.656 45.5679 9.072C45.5679 9.792 44.9199 10.008 44.3919 10.08L41.3679 10.536C39.2319 10.848 37.6479 12.12 37.6479 14.616C37.6479 17.256 39.6159 18.336 41.5359 18.336C43.8159 18.336 44.8959 17.28 45.6639 16.488C45.7359 17.208 45.7839 17.4 45.9759 18H49.5999V17.496C49.1919 17.352 48.8559 17.016 48.8559 15.504V8.592ZM45.5679 13.416C45.5679 14.976 44.0559 15.936 42.5679 15.936C41.9199 15.936 41.0079 15.576 41.0079 14.4C41.0079 13.008 42.0399 12.696 43.2879 12.48C44.6799 12.264 45.2319 12.048 45.5679 11.784V13.416Z" fill="white"/>
<path d="M55.6159 1.776H52.2559V5.232H50.5279V7.632H52.2559V15.384C52.2559 17.04 52.7839 18.144 55.6879 18.144H56.1199C56.6479 18.144 57.1759 18.12 57.7039 18.096V15.552C57.4639 15.576 57.2239 15.6 57.0079 15.6C55.6399 15.6 55.6159 15.312 55.6159 14.568V7.632H57.7039V5.232H55.6159V1.776Z" fill="white"/>
<path d="M60.4048 3.816H62.2528C62.2048 4.728 62.0608 5.592 60.4768 6.096V7.32C61.8448 7.032 63.7648 6.24 63.7648 3.216V0.768002H60.4048V3.816Z" fill="white"/>
<path d="M76.0708 9.12C75.8068 5.52 72.8308 4.896 70.3348 4.896C66.3508 4.896 65.1748 7.296 65.1748 9.168C65.1748 13.944 73.0948 12.336 73.0948 14.472C73.0948 14.952 72.6868 15.792 70.9588 15.792C68.8468 15.792 68.1748 15 68.1748 13.92H64.7188C64.8148 17.328 67.9588 18.336 70.8628 18.336C72.8548 18.336 76.4548 17.664 76.4548 13.944C76.4548 9.24 68.4628 10.704 68.4628 8.688C68.4628 8.136 68.7028 7.44 70.5268 7.44C72.3508 7.44 72.6388 8.304 72.7828 9.12H76.0708Z" fill="white"/>
<path d="M85.8384 18H89.3664V11.256H93.0864C95.7504 11.256 95.8944 12.168 95.8944 14.52C95.8944 16.296 96.0384 17.184 96.2784 18H100.262V17.544C99.4944 17.256 99.4944 16.632 99.4944 14.112C99.4944 10.896 98.7264 10.368 97.3104 9.744C99.0144 9.168 99.9744 7.536 99.9744 5.64C99.9744 4.152 99.1344 0.768002 94.5504 0.768002H85.8384V18ZM89.3664 8.352V3.744H93.8544C95.9664 3.744 96.3744 5.088 96.3744 6C96.3744 7.704 95.4624 8.352 93.5904 8.352H89.3664Z" fill="white"/>
<path d="M109.938 14.256C109.674 15.168 108.714 15.648 107.778 15.648C105.066 15.648 104.874 13.488 104.778 12.528H113.538V11.928C113.538 6.096 110.058 4.896 107.538 4.896C101.946 4.896 101.418 9.816 101.418 11.352C101.418 16.608 104.178 18.336 107.778 18.336C109.962 18.336 112.506 17.328 113.394 14.256H109.938ZM104.874 10.344C105.066 8.664 105.906 7.656 107.49 7.656C108.57 7.656 109.89 8.28 110.082 10.344H104.874Z" fill="white"/>
<path d="M126.106 8.592C126.106 5.448 122.818 4.896 121.018 4.896C118.402 4.896 115.69 5.448 115.306 9.36H118.546C118.642 8.616 118.93 7.584 120.61 7.584C121.474 7.584 122.818 7.656 122.818 9.072C122.818 9.792 122.17 10.008 121.642 10.08L118.618 10.536C116.482 10.848 114.898 12.12 114.898 14.616C114.898 17.256 116.866 18.336 118.786 18.336C121.066 18.336 122.146 17.28 122.914 16.488C122.986 17.208 123.034 17.4 123.226 18H126.85V17.496C126.442 17.352 126.106 17.016 126.106 15.504V8.592ZM122.818 13.416C122.818 14.976 121.306 15.936 119.818 15.936C119.17 15.936 118.258 15.576 118.258 14.4C118.258 13.008 119.29 12.696 120.538 12.48C121.93 12.264 122.482 12.048 122.818 11.784V13.416Z" fill="white"/>
<path d="M132.554 0.768002H129.194V18H132.554V0.768002Z" fill="white"/>
<path d="M143.194 13.008C143.194 11.28 143.626 10.824 144.658 10.08C146.506 8.76 147.562 7.608 147.562 5.664C147.562 0.960002 142.858 0.552002 141.418 0.552002C138.802 0.552002 135.658 1.992 135.658 6.168H139.042V6.144C139.162 5.016 139.474 3.384 141.634 3.384C142.642 3.384 143.962 3.888 143.962 5.76C143.962 6.744 143.41 7.488 142.474 8.136C140.266 9.696 140.026 10.704 140.026 13.008H143.194ZM143.434 14.616H139.93V18H143.434V14.616Z" fill="white"/>
</svg>
