<svg width="148" height="19" viewBox="0 0 148 19" fill="none" xmlns="http://www.w3.org/2000/svg">
<path d="M5.25603 18H8.61603C10.464 9.12 10.752 7.872 11.28 4.56H11.328C11.904 7.872 12.216 9.552 13.992 18H17.448L22.296 0.768002H18.648C16.416 10.248 16.128 11.736 15.84 13.368H15.792C15.408 11.136 15.24 10.224 13.224 0.768002H9.40803C7.58403 9.816 7.32003 11.568 7.00803 13.368H6.96003C6.64803 11.4 6.43203 10.2 4.22403 0.768002H0.384033L5.25603 18Z" fill="black"/>
<path d="M35.7681 9.168C35.7681 6.36 33.8241 4.896 31.3281 4.896C29.5041 4.896 28.0641 5.832 27.6321 6.888H27.5841V0.768002H24.2241V18H27.5841V10.68C27.5841 8.736 28.7361 7.728 30.2241 7.728C32.3601 7.728 32.4081 9.312 32.4081 10.248V18H35.7681V9.168Z" fill="black"/>
<path d="M49.24 8.592C49.24 5.448 45.952 4.896 44.152 4.896C41.536 4.896 38.824 5.448 38.44 9.36H41.68C41.776 8.616 42.064 7.584 43.744 7.584C44.608 7.584 45.952 7.656 45.952 9.072C45.952 9.792 45.304 10.008 44.776 10.08L41.752 10.536C39.616 10.848 38.032 12.12 38.032 14.616C38.032 17.256 40 18.336 41.92 18.336C44.2 18.336 45.28 17.28 46.048 16.488C46.12 17.208 46.168 17.4 46.36 18H49.984V17.496C49.576 17.352 49.24 17.016 49.24 15.504V8.592ZM45.952 13.416C45.952 14.976 44.44 15.936 42.952 15.936C42.304 15.936 41.392 15.576 41.392 14.4C41.392 13.008 42.424 12.696 43.672 12.48C45.064 12.264 45.616 12.048 45.952 11.784V13.416Z" fill="black"/>
<path d="M55.9999 1.776H52.6399V5.232H50.9119V7.632H52.6399V15.384C52.6399 17.04 53.1679 18.144 56.0719 18.144H56.5039C57.0319 18.144 57.5599 18.12 58.0879 18.096V15.552C57.8479 15.576 57.6079 15.6 57.3919 15.6C56.0239 15.6 55.9999 15.312 55.9999 14.568V7.632H58.0879V5.232H55.9999V1.776Z" fill="black"/>
<path d="M60.7888 3.816H62.6368C62.5888 4.728 62.4448 5.592 60.8608 6.096V7.32C62.2288 7.032 64.1488 6.24 64.1488 3.216V0.768002H60.7888V3.816Z" fill="black"/>
<path d="M76.4548 9.12C76.1908 5.52 73.2148 4.896 70.7188 4.896C66.7348 4.896 65.5588 7.296 65.5588 9.168C65.5588 13.944 73.4788 12.336 73.4788 14.472C73.4788 14.952 73.0708 15.792 71.3428 15.792C69.2308 15.792 68.5588 15 68.5588 13.92H65.1028C65.1988 17.328 68.3428 18.336 71.2468 18.336C73.2388 18.336 76.8388 17.664 76.8388 13.944C76.8388 9.24 68.8468 10.704 68.8468 8.688C68.8468 8.136 69.0868 7.44 70.9108 7.44C72.7348 7.44 73.0228 8.304 73.1668 9.12H76.4548Z" fill="black"/>
<path d="M86.2225 18H89.7505V11.256H93.4705C96.1345 11.256 96.2785 12.168 96.2785 14.52C96.2785 16.296 96.4225 17.184 96.6625 18H100.646V17.544C99.8785 17.256 99.8785 16.632 99.8785 14.112C99.8785 10.896 99.1105 10.368 97.6945 9.744C99.3985 9.168 100.358 7.536 100.358 5.64C100.358 4.152 99.5185 0.768002 94.9345 0.768002H86.2225V18ZM89.7505 8.352V3.744H94.2385C96.3505 3.744 96.7585 5.088 96.7585 6C96.7585 7.704 95.8465 8.352 93.9745 8.352H89.7505Z" fill="black"/>
<path d="M110.322 14.256C110.058 15.168 109.098 15.648 108.162 15.648C105.45 15.648 105.258 13.488 105.162 12.528H113.922V11.928C113.922 6.096 110.442 4.896 107.922 4.896C102.33 4.896 101.802 9.816 101.802 11.352C101.802 16.608 104.562 18.336 108.162 18.336C110.346 18.336 112.89 17.328 113.778 14.256H110.322ZM105.258 10.344C105.45 8.664 106.29 7.656 107.874 7.656C108.954 7.656 110.274 8.28 110.466 10.344H105.258Z" fill="black"/>
<path d="M126.49 8.592C126.49 5.448 123.202 4.896 121.402 4.896C118.786 4.896 116.074 5.448 115.69 9.36H118.93C119.026 8.616 119.314 7.584 120.994 7.584C121.858 7.584 123.202 7.656 123.202 9.072C123.202 9.792 122.554 10.008 122.026 10.08L119.002 10.536C116.866 10.848 115.282 12.12 115.282 14.616C115.282 17.256 117.25 18.336 119.17 18.336C121.45 18.336 122.53 17.28 123.298 16.488C123.37 17.208 123.418 17.4 123.61 18H127.234V17.496C126.826 17.352 126.49 17.016 126.49 15.504V8.592ZM123.202 13.416C123.202 14.976 121.69 15.936 120.202 15.936C119.554 15.936 118.642 15.576 118.642 14.4C118.642 13.008 119.674 12.696 120.922 12.48C122.314 12.264 122.866 12.048 123.202 11.784V13.416Z" fill="black"/>
<path d="M132.938 0.768002H129.578V18H132.938V0.768002Z" fill="black"/>
<path d="M143.578 13.008C143.578 11.28 144.01 10.824 145.042 10.08C146.89 8.76 147.946 7.608 147.946 5.664C147.946 0.960002 143.242 0.552002 141.802 0.552002C139.186 0.552002 136.042 1.992 136.042 6.168H139.426V6.144C139.546 5.016 139.858 3.384 142.018 3.384C143.026 3.384 144.346 3.888 144.346 5.76C144.346 6.744 143.794 7.488 142.858 8.136C140.65 9.696 140.41 10.704 140.41 13.008H143.578ZM143.818 14.616H140.314V18H143.818V14.616Z" fill="black"/>
</svg>
