<?xml version="1.0" standalone="no"?>
<!DOCTYPE svg PUBLIC "-//W3C//DTD SVG 20010904//EN"
 "http://www.w3.org/TR/2001/REC-SVG-20010904/DTD/svg10.dtd">
<svg version="1.0" xmlns="http://www.w3.org/2000/svg"
 width="512.000000pt" height="512.000000pt" viewBox="0 0 512.000000 512.000000"
 preserveAspectRatio="xMidYMid meet">
<metadata>
Created by potrace 1.11, written by Peter Selinger 2001-2013
</metadata>
<g transform="translate(0.000000,512.000000) scale(0.100000,-0.100000)"
fill="#000000" stroke="none">
<path d="M2240 4900 c-312 -48 -581 -158 -790 -324 -65 -52 -220 -219 -267
-287 -66 -97 -132 -228 -171 -344 -27 -79 -39 -125 -67 -260 -12 -60 -19 -173
-20 -309 l0 -139 543 0 c298 0 545 3 549 7 5 4 8 38 9 74 1 89 10 154 34 249
68 266 230 387 515 382 308 -5 469 -179 461 -494 -3 -107 -7 -124 -52 -222
-34 -75 -127 -175 -238 -255 -470 -342 -622 -553 -690 -960 -14 -86 -29 -495
-18 -525 3 -9 132 -12 523 -11 285 0 519 3 520 6 0 4 2 59 4 122 10 368 48
443 325 647 36 26 70 51 75 55 33 25 176 138 205 163 88 75 236 235 294 318
76 110 156 274 170 350 1 7 11 48 21 92 20 85 27 339 13 460 -39 336 -185 619
-425 825 -67 57 -138 108 -198 141 -216 118 -350 165 -635 224 -9 2 -43 6 -75
10 -33 4 -69 10 -80 12 -11 3 -110 6 -220 8 -153 2 -227 -2 -315 -15z"/>
<path d="M2010 755 l0 -555 568 0 568 0 0 555 0 555 -568 0 -568 0 0 -555z"/>
</g>
</svg>
